<?xml version="1.0" standalone="no"?>
<!DOCTYPE svg PUBLIC "-//W3C//DTD SVG 1.1//EN" "http://www.w3.org/Graphics/SVG/1.1/DTD/svg11.dtd" >
<svg xmlns="http://www.w3.org/2000/svg" xmlns:xlink="http://www.w3.org/1999/xlink" version="1.1">
<metadata>
Created by FontForge 20170731 at Wed Dec 14 13:36:49 2011
 By Aleksey,,,
Generated in 2011 by FontLab Studio. Copyright info pending.
</metadata>
<defs>
<font id="Luset-Bold" horiz-adv-x="520" >
  <font-face 
    font-family="Luset"
    font-weight="700"
    font-stretch="normal"
    units-per-em="1000"
    panose-1="2 0 5 3 6 0 0 2 0 4"
    ascent="750"
    descent="-250"
    x-height="482"
    cap-height="675"
    bbox="-436 -249 1165 916"
    underline-thickness="50"
    underline-position="-200"
    unicode-range="U+000D-FB04"
  />
<missing-glyph horiz-adv-x="500" 
d="M324 675q72 0 93 -27t21 -108v-405q0 -81 -21 -108t-93 -27h-148q-72 0 -93 27t-21 108v405q0 81 21 108t93 27h148zM351 122v431q0 45 -6 58l-72 -272l73 -274q5 14 5 57zM149 122q0 -45 4 -56l73 273l-73 270q-4 -11 -4 -56v-431zM195 48h109l-55 202zM303 627h-108
l54 -201z" />
    <glyph glyph-name="f_f" unicode="ff" horiz-adv-x="543" 
d="M231 742q42 0 71.5 -20t29.5 -43q0 -13 -9 -24t-29 -11q-11 0 -29.5 19.5t-30.5 19.5q-26 0 -26 -75v-126h115v84q0 92 53 134t127 42q54 0 92.5 -20t38.5 -43q0 -13 -9 -24t-29 -11q-15 0 -39.5 19.5t-50.5 19.5q-36 0 -36 -75v-126h63q18 0 18 -19q0 -14 -10 -26
t-26 -12h-45q0 -8 -1 -53.5t-3.5 -157t-5.5 -244.5q0 -23 -27 -27l-53 -8q-4 -1 -11 -1q-20 0 -22 21l-24 470h-115q0 -8 -1 -53.5t-3.5 -157t-5.5 -244.5q0 -23 -27 -27l-53 -8q-4 -1 -11 -1q-20 0 -22 21l-24 470h-29q-18 0 -18 17q0 14 10 27t23 13h14v84q0 92 50.5 134
t119.5 42z" />
    <glyph glyph-name="fi" unicode="fi" horiz-adv-x="529" 
d="M469 -11q-77 0 -114.5 40t-37.5 104v292h-108q0 -8 -1 -53.5t-3.5 -157t-5.5 -244.5q0 -23 -27 -27l-53 -8q-31 -5 -33 20l-24 470h-29q-23 0 -18 25q6 23 25 30l8 2h14v63q0 98 59 147.5t139 49.5q53 0 95.5 -20t57.5 -55q16 -39 -10.5 -47t-49.5 18q-36 38 -78 38
q-30 0 -48 -22t-18 -60v-112h238q17 0 17 -17v-326q0 -86 50 -86q40 0 78 55q10 14 23.5 11.5t13.5 -22.5q0 -37 -48 -72.5t-112 -35.5z" />
    <glyph glyph-name="fl" unicode="fl" horiz-adv-x="533" 
d="M468 713v-574q0 -86 50 -86q40 0 78 55q10 14 23.5 11.5t13.5 -22.5q0 -37 -48 -72.5t-112 -35.5q-77 0 -116.5 40t-39.5 104q0 282 14 519q-29 24 -56 24q-30 0 -48 -22t-18 -60v-112h63q20 0 18 -22q-2 -23 -23 -32l-13 -3h-45q0 -8 -1 -53.5t-3.5 -157t-5.5 -244.5
q0 -23 -27 -27l-53 -8q-31 -5 -33 20l-24 470h-29q-23 0 -18 25q6 23 25 30l8 2h14v63q0 98 59 147.5t139 49.5q63 0 104 -26q53 17 70 17q34 0 34 -20z" />
    <glyph glyph-name="f_f_i" unicode="ffi" horiz-adv-x="790" 
d="M730 -11q-77 0 -114.5 40t-37.5 104v292h-108q0 -8 -1 -53.5t-3.5 -157t-5.5 -244.5q0 -23 -27 -27l-53 -8q-31 -5 -33 20l-24 470h-115q0 -8 -1 -53.5t-3.5 -157t-5.5 -244.5q0 -23 -27 -27l-53 -8q-4 -1 -11 -1q-20 0 -22 21l-24 470h-29q-18 0 -18 17q0 14 10 27
t23 13h14v84q0 92 50.5 134t119.5 42q42 0 71.5 -20t29.5 -43q0 -13 -9 -24t-29 -11q-11 0 -29.5 19.5t-30.5 19.5q-26 0 -26 -75v-126h115v63q0 98 59 147.5t139 49.5q53 0 95.5 -20t57.5 -55q16 -39 -10.5 -47t-49.5 18q-36 38 -78 38q-30 0 -48 -22t-18 -60v-112h238
q17 0 17 -17v-326q0 -86 50 -86q40 0 78 55q10 14 23.5 11.5t13.5 -22.5q0 -37 -48 -72.5t-112 -35.5z" />
    <glyph glyph-name="f_f_l" unicode="ffl" horiz-adv-x="794" 
d="M729 713v-574q0 -86 50 -86q40 0 78 55q10 14 23.5 11.5t13.5 -22.5q0 -37 -48 -72.5t-112 -35.5q-77 0 -116.5 40t-39.5 104q0 282 14 519q-29 24 -56 24q-30 0 -48 -22t-18 -60v-112h63q20 0 18 -22q-2 -23 -23 -32l-13 -3h-45q0 -8 -1 -53.5t-3.5 -157t-5.5 -244.5
q0 -23 -27 -27l-53 -8q-31 -5 -33 20l-24 470h-115q0 -8 -1 -53.5t-3.5 -157t-5.5 -244.5q0 -23 -27 -27l-53 -8q-4 -1 -11 -1q-20 0 -22 21l-24 470h-29q-18 0 -18 17q0 14 10 27t23 13h14v84q0 92 50.5 134t119.5 42q42 0 71.5 -20t29.5 -43q0 -13 -9 -24t-29 -11
q-11 0 -29.5 19.5t-30.5 19.5q-26 0 -26 -75v-126h115v63q0 98 59 147.5t139 49.5q63 0 104 -26q53 17 70 17q34 0 34 -20z" />
    <glyph glyph-name="f_b" unicode="fb" horiz-adv-x="802" 
d="M318 228v433q-23 15 -43 15q-30 0 -48 -22t-18 -60v-112h63q20 0 18 -22q-2 -23 -23 -32l-13 -3h-45q0 -8 -1 -53.5t-3.5 -157t-5.5 -244.5q0 -23 -27 -27l-53 -8q-31 -5 -33 20l-24 470h-29q-23 0 -18 25q6 23 25 30l8 2h14v63q0 98 59 147.5t139 49.5q60 0 101 -26
q53 17 70 17q34 0 34 -20v-252q51 32 113 32q97 0 150.5 -70t53.5 -171q0 -119 -67.5 -191t-181.5 -72q-125 0 -170 58t-45 181zM631 244q0 88 -22 136.5t-64 48.5q-39 0 -80 -37v-222q0 -35 4 -58.5t21.5 -44.5t49.5 -21q27 0 46 18t28 49t13 62.5t4 68.5z" />
    <glyph glyph-name="f_f_b" unicode="ffb" horiz-adv-x="1063" 
d="M579 228v433q-23 15 -43 15q-30 0 -48 -22t-18 -60v-112h63q20 0 18 -22q-2 -23 -23 -32l-13 -3h-45q0 -8 -1 -53.5t-3.5 -157t-5.5 -244.5q0 -23 -27 -27l-53 -8q-31 -5 -33 20l-24 470h-115q0 -8 -1 -53.5t-3.5 -157t-5.5 -244.5q0 -23 -27 -27l-53 -8q-4 -1 -11 -1
q-20 0 -22 21l-24 470h-29q-18 0 -18 17q0 14 10 27t23 13h14v84q0 92 50.5 134t119.5 42q42 0 71.5 -20t29.5 -43q0 -13 -9 -24t-29 -11q-11 0 -29.5 19.5t-30.5 19.5q-26 0 -26 -75v-126h115v63q0 98 59 147.5t139 49.5q60 0 101 -26q53 17 70 17q34 0 34 -20v-252
q51 32 113 32q97 0 150.5 -70t53.5 -171q0 -119 -67.5 -191t-181.5 -72q-125 0 -170 58t-45 181zM892 244q0 88 -22 136.5t-64 48.5q-39 0 -80 -37v-222q0 -35 4 -58.5t21.5 -44.5t49.5 -21q27 0 46 18t28 49t13 62.5t4 68.5z" />
    <glyph glyph-name="f_h" unicode="fh" horiz-adv-x="804" 
d="M465 713v-260q59 40 118 40q156 0 156 -162v-192q0 -86 50 -86q40 0 78 55q10 14 23.5 11.5t13.5 -22.5q0 -37 -48 -72.5t-112 -35.5q-77 0 -114.5 40t-37.5 104v215q0 39 -10.5 60.5t-39.5 21.5q-28 0 -77 -42v-371q0 -17 -17 -17h-113q-17 0 -17 17v644q-23 15 -43 15
q-30 0 -48 -22t-18 -60v-112h63q20 0 18 -22q-2 -23 -23 -32l-13 -3h-45q0 -8 -1 -53.5t-3.5 -157t-5.5 -244.5q0 -23 -27 -27l-53 -8q-31 -5 -33 20l-24 470h-29q-23 0 -18 25q6 23 25 30l8 2h14v63q0 98 59 147.5t139 49.5q60 0 101 -26q53 17 70 17q34 0 34 -20z" />
    <glyph glyph-name="f_f_h" unicode="ffh" horiz-adv-x="1065" 
d="M726 713v-260q59 40 118 40q156 0 156 -162v-192q0 -86 50 -86q40 0 78 55q10 14 23.5 11.5t13.5 -22.5q0 -37 -48 -72.5t-112 -35.5q-77 0 -114.5 40t-37.5 104v215q0 39 -10.5 60.5t-39.5 21.5q-28 0 -77 -42v-371q0 -17 -17 -17h-113q-17 0 -17 17v644q-23 15 -43 15
q-30 0 -48 -22t-18 -60v-112h63q20 0 18 -22q-2 -23 -23 -32l-13 -3h-45q0 -8 -1 -53.5t-3.5 -157t-5.5 -244.5q0 -23 -27 -27l-53 -8q-31 -5 -33 20l-24 470h-115q0 -8 -1 -53.5t-3.5 -157t-5.5 -244.5q0 -23 -27 -27l-53 -8q-4 -1 -11 -1q-20 0 -22 21l-24 470h-29
q-18 0 -18 17q0 14 10 27t23 13h14v84q0 92 50.5 134t119.5 42q42 0 71.5 -20t29.5 -43q0 -13 -9 -24t-29 -11q-11 0 -29.5 19.5t-30.5 19.5q-26 0 -26 -75v-126h115v63q0 98 59 147.5t139 49.5q60 0 101 -26q53 17 70 17q34 0 34 -20z" />
    <glyph glyph-name="f_j" unicode="fj" horiz-adv-x="508" 
d="M464 465v-290q0 -48 -4.5 -96t-18.5 -107.5t-36.5 -104t-63.5 -75t-95 -30.5q-18 0 -28 8.5t-5 18.5t25 15q43 11 61 65t18 178v378h-108q0 -8 -1 -53.5t-3.5 -157t-5.5 -244.5q0 -23 -27 -27l-53 -8q-31 -5 -33 20l-24 470h-29q-23 0 -18 25q6 23 25 30l8 2h14v63
q0 98 59 147.5t139 49.5q53 0 95.5 -20t57.5 -55q16 -39 -10.5 -47t-49.5 18q-36 38 -78 38q-30 0 -48 -22t-18 -60v-112h238q17 0 17 -17z" />
    <glyph glyph-name="f_f_j" unicode="ffj" horiz-adv-x="769" 
d="M725 465v-290q0 -48 -4.5 -96t-18.5 -107.5t-36.5 -104t-63.5 -75t-95 -30.5q-18 0 -28 8.5t-5 18.5t25 15q43 11 61 65t18 178v378h-108q0 -8 -1 -53.5t-3.5 -157t-5.5 -244.5q0 -23 -27 -27l-53 -8q-31 -5 -33 20l-24 470h-115q0 -8 -1 -53.5t-3.5 -157t-5.5 -244.5
q0 -23 -27 -27l-53 -8q-4 -1 -11 -1q-20 0 -22 21l-24 470h-29q-18 0 -18 17q0 14 10 27t23 13h14v84q0 92 50.5 134t119.5 42q42 0 71.5 -20t29.5 -43q0 -13 -9 -24t-29 -11q-11 0 -29.5 19.5t-30.5 19.5q-26 0 -26 -75v-126h115v63q0 98 59 147.5t139 49.5q53 0 95.5 -20
t57.5 -55q16 -39 -10.5 -47t-49.5 18q-36 38 -78 38q-30 0 -48 -22t-18 -60v-112h238q17 0 17 -17z" />
    <glyph glyph-name="f_k" unicode="fk" horiz-adv-x="756" 
d="M465 713v-409l159 162q17 16 40 16h42q18 0 20 -11.5t-9 -19.5l-163 -148l147 -218q17 -25 28.5 -29t36.5 4q21 7 26 -11q6 -22 -23 -38q-39 -22 -86 -22q-48 0 -73.5 14t-49.5 53l-95 159v-198q0 -17 -17 -17h-113q-17 0 -17 17v644q-23 15 -43 15q-30 0 -48 -22
t-18 -60v-112h63q20 0 18 -22q-2 -23 -23 -32l-13 -3h-45q0 -8 -1 -53.5t-3.5 -157t-5.5 -244.5q0 -23 -27 -27l-53 -8q-31 -5 -33 20l-24 470h-29q-23 0 -18 25q6 23 25 30l8 2h14v63q0 98 59 147.5t139 49.5q60 0 101 -26q53 17 70 17q34 0 34 -20z" />
    <glyph glyph-name="f_f_k" unicode="ffk" horiz-adv-x="1017" 
d="M726 713v-409l159 162q17 16 40 16h42q18 0 20 -11.5t-9 -19.5l-163 -148l147 -218q17 -25 28.5 -29t36.5 4q21 7 26 -11q6 -22 -23 -38q-38 -22 -86 -22t-73.5 14t-49.5 53l-95 159v-198q0 -17 -17 -17h-113q-17 0 -17 17v644q-23 15 -43 15q-30 0 -48 -22t-18 -60v-112
h63q20 0 18 -22q-2 -23 -23 -32l-13 -3h-45q0 -8 -1 -53.5t-3.5 -157t-5.5 -244.5q0 -23 -27 -27l-53 -8q-31 -5 -33 20l-24 470h-115q0 -8 -1 -53.5t-3.5 -157t-5.5 -244.5q0 -23 -27 -27l-53 -8q-4 -1 -11 -1q-20 0 -22 21l-24 470h-29q-18 0 -18 17q0 14 10 27t23 13h14
v84q0 92 50.5 134t119.5 42q42 0 71.5 -20t29.5 -43q0 -13 -9 -24t-29 -11q-11 0 -29.5 19.5t-30.5 19.5q-26 0 -26 -75v-126h115v63q0 98 59 147.5t139 49.5q60 0 101 -26q53 17 70 17q34 0 34 -20z" />
    <glyph glyph-name="f_idieresis" unicode="f&#xef;" horiz-adv-x="539" 
d="M479 -11q-77 0 -114.5 40t-37.5 104v332q0 17 17 17h113q17 0 17 -17v-326q0 -86 50 -86q40 0 78 55q10 14 23.5 11.5t13.5 -22.5q0 -37 -48 -72.5t-112 -35.5zM566 627q0 -28 -19.5 -47t-50.5 -19q-32 0 -51.5 19t-19.5 47t19.5 46.5t51.5 18.5q31 0 50.5 -18.5
t19.5 -46.5zM327 561q-37 0 -54 23t-13 48t21 33q-17 17 -34 17q-16 0 -27 -14.5t-11 -42.5v-143h63q20 0 18 -22q-2 -23 -23 -32l-13 -3h-45q0 -8 -1 -53.5t-3.5 -157t-5.5 -244.5q0 -23 -27 -27l-53 -8q-31 -5 -33 20l-24 470h-29q-23 0 -18 25q6 23 25 30l8 2h14v84
q0 92 53 134t127 42q66 0 110.5 -34t44.5 -81q0 -28 -19.5 -47t-50.5 -19z" />
    <glyph glyph-name="f_t" unicode="ft" horiz-adv-x="559" 
d="M209 482h123l30 104q7 23 60 38q32 9 42 5.5t10 -19.5v-128h59q20 0 18 -22q-2 -23 -23 -32l-13 -3h-41v-286q0 -86 50 -86q40 0 78 55q10 14 23.5 11.5t13.5 -22.5q0 -37 -48 -72.5t-112 -35.5q-77 0 -114.5 40t-37.5 104v292h-118q0 -8 -1 -53.5t-3.5 -157t-5.5 -244.5
q0 -23 -27 -27l-53 -8q-31 -5 -33 20l-24 470h-29q-23 0 -18 25q6 23 25 30l8 2h14v84q0 92 53 134t127 42q54 0 92.5 -20t38.5 -43q0 -13 -9 -24t-29 -11q-15 0 -39.5 19.5t-50.5 19.5q-36 0 -36 -75v-126z" />
    <glyph glyph-name="f_f_t" unicode="fft" horiz-adv-x="820" 
d="M588 425h-118q0 -8 -1 -53.5t-3.5 -157t-5.5 -244.5q0 -23 -27 -27l-53 -8q-4 -1 -11 -1q-20 0 -22 21l-24 470h-115q0 -8 -1 -53.5t-3.5 -157t-5.5 -244.5q0 -23 -27 -27l-53 -8q-4 -1 -11 -1q-20 0 -22 21l-24 470h-29q-18 0 -18 17q0 14 10 27t23 13h14v84
q0 92 50.5 134t119.5 42q42 0 71.5 -20t29.5 -43q0 -13 -9 -24t-29 -11q-11 0 -29.5 19.5t-30.5 19.5q-26 0 -26 -75v-126h115v84q0 92 53 134t127 42q54 0 92.5 -20t38.5 -43q0 -13 -9 -24t-29 -11q-15 0 -39.5 19.5t-50.5 19.5q-36 0 -36 -75v-126h123l30 104q7 23 60 38
q32 9 42 5.5t10 -19.5v-128h59q20 0 18 -22q-2 -23 -23 -32l-13 -3h-41v-286q0 -86 50 -86q40 0 78 55q10 14 23.5 11.5t13.5 -22.5q0 -37 -48 -72.5t-112 -35.5q-77 0 -114.5 40t-37.5 104v292z" />
    <glyph glyph-name=".notdef" horiz-adv-x="500" 
d="M324 675q72 0 93 -27t21 -108v-405q0 -81 -21 -108t-93 -27h-148q-72 0 -93 27t-21 108v405q0 81 21 108t93 27h148zM351 122v431q0 45 -6 58l-72 -272l73 -274q5 14 5 57zM149 122q0 -45 4 -56l73 273l-73 270q-4 -11 -4 -56v-431zM195 48h109l-55 202zM303 627h-108
l54 -201z" />
    <glyph glyph-name=".null" horiz-adv-x="0" 
 />
    <glyph glyph-name=".null" horiz-adv-x="0" 
 />
    <glyph glyph-name="nonmarkingreturn" horiz-adv-x="333" 
 />
    <glyph glyph-name="CR" unicode="&#xd;" horiz-adv-x="277" 
 />
    <glyph glyph-name="space" unicode=" " horiz-adv-x="277" 
 />
    <glyph glyph-name="exclam" unicode="!" horiz-adv-x="210" 
d="M113 180h-17q-36 0 -39 26q-11 112 -31 447q-1 15 9.5 23.5t26.5 8.5h85q16 0 26.5 -8.5t9.5 -23.5q-14 -240 -31 -447q-1 -26 -39 -26zM183 63q0 -30 -22 -52t-53 -22q-30 0 -52.5 22t-22.5 52t22.5 51.5t52.5 21.5q31 0 53 -21t22 -52z" />
    <glyph glyph-name="quotedbl" unicode="&#x22;" horiz-adv-x="333" 
d="M94 475h-16q-30 0 -33 23l-19 196q-2 19 11.5 28t48.5 9t48.5 -9t11.5 -28l-19 -196q-3 -23 -33 -23zM255 475h-16q-30 0 -33 23l-19 196q-2 19 11.5 28t48.5 9t48.5 -9t11.5 -28l-19 -196q-3 -23 -33 -23z" />
    <glyph glyph-name="numbersign" unicode="#" 
d="M480 190q0 -20 -6 -26t-30 -6h-77q-11 -78 -17 -115q-4 -25 -13 -34t-35 -9q-46 0 -39 45l17 113h-78l-16 -115q-3 -24 -12.5 -33.5t-35.5 -9.5q-44 0 -39 45l16 113h-64q-24 0 -30 6t-6 26t6 26t30 6h72l15 101h-67q-24 0 -30 6.5t-6 26.5t6 26t30 6h76q11 78 16 117
q3 24 13 33.5t35 9.5t33.5 -10.5t5.5 -34.5l-16 -115h77q12 78 17 117q3 24 13 33.5t35 9.5t33.5 -11t5.5 -34l-17 -115h65q24 0 30 -6t6 -26q0 -21 -6 -27t-30 -6h-72l-15 -101h68q24 0 30 -6t6 -26zM226 323l-15 -101h77l14 101h-76z" />
    <glyph glyph-name="dollar" unicode="$" 
d="M297 669v-45q54 -8 91.5 -40t37.5 -52q0 -33 -35 -33q-13 0 -26.5 10t-24.5 22t-30.5 22t-43.5 10q-32 0 -49 -17t-17 -43q0 -21 8 -39t27.5 -34t33 -24.5t41.5 -25.5q38 -23 60 -38.5t49.5 -42.5t40.5 -60t13 -73q0 -63 -45.5 -111.5t-135.5 -61.5v-49q0 -28 -42 -28
q-41 0 -41 28v47q-54 6 -100.5 31t-59.5 64q-7 22 3.5 35t28 13t28.5 -12q35 -36 63.5 -52t62.5 -16q43 0 70 24t27 68q0 20 -8 37.5t-28.5 34.5t-33.5 26t-43 27q-73 46 -115 91t-42 107q0 54 37 97.5t115 55.5v47q0 29 41 29q42 0 42 -29z" />
    <glyph glyph-name="percent" unicode="%" horiz-adv-x="808" 
d="M361 428q0 -91 -45.5 -144t-125.5 -53q-81 0 -125.5 52.5t-44.5 144.5t44.5 145.5t125.5 53.5q80 0 125.5 -54t45.5 -145zM241 429q0 142 -51 142q-52 0 -52 -142q0 -141 51 -141q52 0 52 141zM788 186q0 -91 -45.5 -144t-125.5 -53q-81 0 -125.5 52.5t-44.5 144.5
t44.5 145.5t125.5 53.5q80 0 125.5 -54t45.5 -145zM668 187q0 142 -51 142q-52 0 -52 -142q0 -141 51 -141q52 0 52 141zM184 -15l358 642q9 16 36 16h24q13 0 19 -5.5t2 -13.5l-358 -642q-9 -16 -36 -16h-24q-23 0 -23 12q0 4 2 7z" />
    <glyph glyph-name="ampersand" unicode="&#x26;" horiz-adv-x="621" 
d="M587 279q0 -23 -17.5 -36t-44.5 -30.5t-42 -44.5l129 -139q12 -14 7.5 -21.5t-21.5 -7.5h-113q-31 0 -44 17l-45 55q-86 -83 -190 -83q-88 0 -136.5 44t-48.5 117q0 107 150 189q-77 91 -77 160q0 65 49 107t142 42q78 0 127.5 -38t49.5 -101q0 -91 -134 -161l105 -123
q47 92 113 92q41 0 41 -38zM244 86q61 0 102 45l-132 155q-59 -48 -59 -115q0 -37 25 -61t64 -24zM341 499q0 34 -17 59t-46 25q-23 0 -36.5 -19.5t-13.5 -45.5q0 -51 59 -122q54 39 54 103z" />
    <glyph glyph-name="quotesingle" unicode="'" horiz-adv-x="172" 
d="M94 475h-16q-30 0 -33 23l-19 196q-2 19 11.5 28t48.5 9t48.5 -9t11.5 -28l-19 -196q-3 -23 -33 -23z" />
    <glyph glyph-name="parenleft" unicode="(" horiz-adv-x="320" 
d="M160 306q0 -115 29 -230t83 -177q21 -22 21 -31q0 -12 -12 -16.5t-32 2.5t-39 25q-88 81 -135.5 192.5t-47.5 234.5q0 124 47 234t136 193q25 22 54 22q18 0 21.5 -11t-13.5 -31q-56 -60 -84 -173t-28 -234z" />
    <glyph glyph-name="parenright" unicode=")" horiz-adv-x="320" 
d="M160 306q0 121 -28 234t-84 173q-17 20 -13.5 31t21.5 11q29 0 54 -22q89 -83 136 -193t47 -234q0 -123 -47.5 -234.5t-135.5 -192.5q-19 -18 -39 -25t-32 -2.5t-12 16.5q0 8 21 31q54 62 83 177t29 230z" />
    <glyph glyph-name="asterisk" unicode="*" horiz-adv-x="400" 
d="M28 594q0 16 10.5 28t26.5 12q22 0 108 -48q-13 85 -13 107q0 15 10.5 25t27.5 10t27.5 -10t10.5 -25q0 -24 -15 -108q95 49 108 49q16 0 27 -12t11 -29q0 -27 -24 -34q-10 -3 -108 -19q45 -43 63 -64t18 -35q0 -15 -11.5 -26.5t-28.5 -11.5q-18 0 -30 16.5t-41 75.5
l-9 18q-42 -87 -56 -100q-10 -9 -22 -9q-16 0 -28.5 12t-12.5 27q0 7 3 14t10 15t13 14.5t17.5 17t17.5 16.5l21 21l-22 3q-80 11 -95 21q-14 10 -14 29z" />
    <glyph glyph-name="plus" unicode="+" horiz-adv-x="550" 
d="M515 256q0 -22 -10.5 -33t-42.5 -11h-135v-150q0 -25 -12 -33.5t-40 -8.5t-40 8.5t-12 33.5v150h-136q-33 0 -43 11t-10 33t10 33t43 11h136v149q0 25 12 33.5t40 8.5t40 -8.5t12 -33.5v-149h135q32 0 42.5 -11t10.5 -33z" />
    <glyph glyph-name="comma" unicode="," horiz-adv-x="217" 
d="M197 33q0 -62 -44.5 -105.5t-95.5 -43.5q-13 0 -20.5 7t-5.5 15.5t12 12.5q18 6 34.5 26t18.5 42q-31 4 -48 23.5t-17 45.5q0 29 20 50.5t57 21.5q42 0 65.5 -28t23.5 -67z" />
    <glyph glyph-name="hyphen" unicode="-" horiz-adv-x="382" 
d="M341 256q0 -23 -9 -34.5t-32 -11.5h-218q-23 0 -32 11.5t-9 34.5t9 34.5t32 11.5h218q23 0 32 -11.5t9 -34.5z" />
    <glyph glyph-name="period" unicode="." horiz-adv-x="217" 
d="M183 63q0 -30 -22 -52t-53 -22q-30 0 -52.5 22t-22.5 52t22.5 51.5t52.5 21.5q31 0 53 -21t22 -52z" />
    <glyph glyph-name="slash" unicode="/" horiz-adv-x="376" 
d="M355 675l-248 -731q-10 -27 -58 -10q-17 6 -24.5 18t-3.5 23l247 727q4 12 20 16t37 -3q17 -6 25 -18.5t5 -21.5z" />
    <glyph glyph-name="zero" unicode="0" 
d="M260 -11q-115 0 -178.5 80.5t-63.5 238.5t63.5 239.5t178.5 81.5q113 0 177 -81.5t64 -239.5q0 -157 -64 -238t-177 -81zM260 50q41 0 62 72t21 186q0 115 -21 187.5t-62 72.5q-42 0 -63 -72.5t-21 -187.5q0 -114 21 -186t63 -72z" />
    <glyph glyph-name="one" unicode="1" 
d="M435 0h-350q-15 0 -20.5 5t-5.5 16v27q0 21 26 21h95v435q-68 -27 -91 -27q-12 0 -21 12t-9 25q0 16 15 21q60 19 113 43t79.5 37.5t36.5 13.5q37 0 37 -35v-525h95q26 0 26 -21v-27q0 -19 -26 -21z" />
    <glyph glyph-name="two" unicode="2" 
d="M206 106l252 1q26 0 26 -21v-65q0 -21 -26 -21h-384q-38 0 -38 23q0 16 17 34q138 146 195.5 230t57.5 156q0 55 -26.5 83.5t-69.5 28.5q-56 0 -109 -42q-14 -12 -35.5 -5t-21.5 28q0 36 63 64.5t138 28.5q213 0 213 -178q0 -53 -55 -125t-197 -220z" />
    <glyph glyph-name="three" unicode="3" 
d="M92 92q50 -31 106 -31q55 0 92 33t37 94q0 50 -29 85t-74 35h-57q-20 0 -28 15t0 30t27 15h33q46 0 71.5 29.5t25.5 68.5q0 36 -22.5 62t-63.5 26q-21 0 -40.5 -5.5t-30 -11t-25.5 -15.5t-19 -12q-23 -13 -38 5.5t1 38.5q27 36 79.5 55.5t113.5 19.5q82 0 139 -36
t57 -101q0 -89 -86 -141q57 -19 88.5 -65t31.5 -103q0 -83 -67 -138.5t-189 -55.5q-63 0 -124.5 23.5t-61.5 57.5q0 19 17 26t36 -4z" />
    <glyph glyph-name="four" unicode="4" 
d="M444 130v-113q0 -17 -17 -17h-124q-18 0 -18 19v111h-225q-44 0 -44 34q0 20 16 42l255 386q17 28 48 28h77q20 0 26 -6.5t6 -26.5v-373h40q13 0 16.5 -3.5t3.5 -13.5v-50q0 -7 -0.5 -9.5t-5 -5t-14.5 -2.5h-40zM285 457l-157 -243h157v243z" />
    <glyph glyph-name="five" unicode="5" 
d="M233 -11q-49 0 -99.5 17t-72.5 41q-20 21 -14 43t29 22q16 0 28 -12q53 -41 100 -41q49 0 80.5 36.5t31.5 100.5q0 62 -26.5 94.5t-69.5 32.5t-80.5 -9t-46.5 -9q-15 0 -22 6.5t-7 25.5v283h339q26 0 26 -21v-67q0 -20 -26 -20h-241v-131q44 11 86 11q95 0 160.5 -50
t65.5 -147q0 -86 -62.5 -146t-178.5 -60z" />
    <glyph glyph-name="six" unicode="6" 
d="M356 638q66 12 66 -14q0 -15 -28 -24q-128 -40 -192 -221q40 18 84 18q99 0 154.5 -59t55.5 -140q0 -84 -61.5 -146.5t-169.5 -62.5q-117 0 -179 67t-62 176q0 156 92 267t240 139zM257 325q-33 0 -76 -22q-6 -32 -6 -78q0 -74 22.5 -121t67.5 -47q35 0 56 42.5t21 96.5
q0 53 -21.5 91t-63.5 38z" />
    <glyph glyph-name="seven" unicode="7" 
d="M69 620h346q61 0 61 -43q0 -18 -13 -47q-8 -18 -64.5 -140.5t-109.5 -236.5t-54 -116q-15 -37 -51 -37h-75q-18 0 -22 12t5 25q117 202 271 474h-293q-26 0 -26 21v67q0 21 25 21z" />
    <glyph glyph-name="eight" unicode="8" 
d="M353 344q50 -19 93 -68.5t43 -103.5q0 -91 -68 -137t-169 -46t-161.5 46t-60.5 127q0 52 42.5 99t98.5 66q-56 27 -85 66t-29 81q0 74 61.5 114.5t145.5 40.5q81 0 140 -38.5t59 -107.5q0 -40 -28.5 -78t-81.5 -61zM267 562q-28 0 -46 -20.5t-18 -54.5q0 -76 78 -111
q53 31 53 106q0 36 -16.5 58t-50.5 22zM252 56q38 0 63 27.5t25 73.5q0 45 -31 80.5t-70 54.5q-37 -15 -58.5 -51t-21.5 -82q0 -44 26 -73.5t67 -29.5z" />
    <glyph glyph-name="nine" unicode="9" 
d="M164 -22q-61 -11 -61 15q0 16 22 23q142 45 195 231q-39 -18 -86 -18q-99 0 -154.5 56t-55.5 133q0 84 61.5 147.5t169.5 63.5q117 0 179 -68t62 -177q0 -156 -92 -267t-240 -139zM263 301q35 0 75 23q7 32 7 67q0 74 -22.5 121t-67.5 47q-35 0 -56 -42.5t-21 -96.5
q0 -49 21.5 -84t63.5 -35z" />
    <glyph glyph-name="colon" unicode=":" horiz-adv-x="237" 
d="M183 63q0 -30 -22 -52t-53 -22q-30 0 -52.5 22t-22.5 52t22.5 51.5t52.5 21.5q31 0 53 -21t22 -52zM183 347q0 -30 -22 -52t-53 -22q-30 0 -52.5 22t-22.5 52t22.5 51.5t52.5 21.5q31 0 53 -21t22 -52z" />
    <glyph glyph-name="semicolon" unicode=";" horiz-adv-x="217" 
d="M197 33q0 -62 -44.5 -105.5t-95.5 -43.5q-13 0 -20.5 7t-5.5 15.5t12 12.5q18 6 34.5 26t18.5 42q-31 4 -48 23.5t-17 45.5q0 29 20 50.5t57 21.5q42 0 65.5 -28t23.5 -67zM183 347q0 -30 -22 -52t-53 -22q-30 0 -52.5 22t-22.5 52t22.5 51.5t52.5 21.5q31 0 53 -21
t22 -52z" />
    <glyph glyph-name="less" unicode="&#x3c;" horiz-adv-x="550" 
d="M418 497q17 0 34.5 -21t17.5 -39q0 -11 -7 -15l-250 -166l250 -166q7 -4 7 -15q0 -18 -17.5 -39t-34.5 -21q-6 0 -11 3l-308 204q-19 12 -19 28v13q0 15 19 27l308 204q5 3 11 3z" />
    <glyph glyph-name="equal" unicode="=" horiz-adv-x="550" 
d="M495 360q0 -47 -57 -47h-327q-57 0 -57 47t57 47h327q57 0 57 -47zM495 152q0 -47 -57 -47h-327q-57 0 -57 47t57 47h327q57 0 57 -47z" />
    <glyph glyph-name="greater" unicode="&#x3e;" horiz-adv-x="550" 
d="M132 497q6 0 11 -3l308 -204q19 -12 19 -27v-13q0 -16 -19 -28l-308 -204q-5 -3 -11 -3q-17 0 -34.5 21t-17.5 39q0 11 7 15l250 166l-250 166q-7 4 -7 15q0 18 17.5 39t34.5 21z" />
    <glyph glyph-name="question" unicode="?" horiz-adv-x="460" 
d="M259 257v-32q0 -27 -32 -27h-27q-32 0 -32 27v32q0 58 62 140q60 70 60 127q0 104 -79 104q-20 0 -37.5 -14t-28 -30.5t-26 -30.5t-32.5 -14q-19 0 -31.5 11t-12.5 32q0 32 32 56.5t72.5 36t77.5 11.5q93 0 150.5 -43t57.5 -116q0 -76 -95 -154q-40 -34 -59.5 -59
t-19.5 -57zM288 63q0 -30 -22 -52t-53 -22q-30 0 -52.5 22t-22.5 52t22.5 51.5t52.5 21.5q31 0 53 -21t22 -52z" />
    <glyph glyph-name="at" unicode="@" horiz-adv-x="950" 
d="M546 715q97 0 170 -26t115.5 -71.5t63 -99.5t20.5 -117q0 -136 -83 -247.5t-197 -111.5q-67 0 -99 47q-47 -47 -116 -47q-76 0 -129.5 52t-53.5 148q0 120 75 202.5t193 82.5q83 0 134.5 -43t38.5 -125l-34 -213q-5 -30 7.5 -35t35.5 13q43 35 73 105t30 161
q0 115 -63.5 189t-184.5 74q-159 0 -267 -119t-108 -288q0 -160 79.5 -247.5t236.5 -87.5q115 0 216 69q24 16 43.5 8t19.5 -27.5t-18 -35.5q-114 -82 -290 -82q-193 0 -306 99t-113 277q0 139 68 253.5t185 178.5t258 64zM551 367q7 42 -5.5 74.5t-48.5 32.5
q-51 0 -88.5 -67t-37.5 -155q0 -77 21.5 -112.5t53.5 -35.5q40 0 67 37q19 106 38 226z" />
    <glyph glyph-name="A" unicode="A" horiz-adv-x="601" 
d="M430 25q-27 81 -59 180h-211q-16 -48 -58 -180q-1 -2 -2 -6t-1.5 -5.5t-2 -4.5t-3 -3.5t-4 -2t-5.5 -2t-8 -1t-11 -0.5h-41q-19 0 -19 15q0 4 19 61l195 563q7 22 35 26l80 14q20 3 27 -1t14 -23l219 -630q2 -6 2 -9q0 -16 -29 -16h-90q-24 0 -33 5.5t-14 19.5zM266 528
q-41 -124 -82 -250h163q-48 145 -81 250z" />
    <glyph glyph-name="B" unicode="B" horiz-adv-x="568" 
d="M548 188q0 -54 -24 -94t-65.5 -62t-90 -32.5t-104.5 -10.5q-86 0 -159 21q-21 6 -30.5 17t-11 22t-1.5 36v538q0 34 37 43q80 20 178 20q119 0 178 -49t59 -121q0 -49 -31.5 -88.5t-82.5 -61.5q70 -19 109 -65t39 -113zM389 199q0 64 -30.5 95t-110.5 31h-33v-262
q27 -5 57 -5q117 0 117 141zM362 508q0 61 -23.5 87t-70.5 26q-28 0 -53 -5v-218h25q62 0 92 24.5t30 85.5z" />
    <glyph glyph-name="C" unicode="C" horiz-adv-x="553" 
d="M337 -11q-153 0 -230 93.5t-77 253.5t77.5 255t226.5 95q67 0 125.5 -24t72.5 -52q9 -18 -0.5 -33t-32.5 -15q-24 0 -45 13t-49 26t-70 13q-70 0 -106.5 -72t-36.5 -196q0 -134 40 -208.5t118 -74.5q12 0 23.5 1t22.5 3t19 4t18.5 5.5t16 5.5t15 7t12 6t11.5 6l9 5
q17 9 29 -7t2 -34q-16 -28 -71.5 -52t-119.5 -24z" />
    <glyph glyph-name="D" unicode="D" horiz-adv-x="630" 
d="M271 -11q-88 0 -166 20q-43 11 -43 47v563q0 36 43 47q73 20 155 20q340 0 340 -340q0 -357 -329 -357zM438 337q0 274 -172 274q-17 0 -49 -4v-536q17 -3 55 -3q166 0 166 269z" />
    <glyph glyph-name="E" unicode="E" horiz-adv-x="503" 
d="M216 303v-228q22 -7 75 -7q97 0 185 11q16 2 23 -15.5t1.5 -36.5t-18.5 -21q-77 -12 -175 -12q-245 0 -245 62v564q0 62 245 62q98 0 156 -12q19 -5 19 -38q0 -11 -7 -24.5t-20 -10.5q-70 13 -134 13q-58 0 -105 -10v-224h186q22 0 22 -23v-27q0 -23 -22 -23h-186z" />
    <glyph glyph-name="F" unicode="F" horiz-adv-x="472" 
d="M216 309v-292q0 -17 -17 -17h-120q-17 0 -17 17v603q0 62 245 62q83 0 156 -12q15 -2 18 -21.5t-5 -36.5t-21 -15q-64 13 -143 13q-53 0 -96 -10v-217h186q22 0 22 -23v-28q0 -23 -22 -23h-186z" />
    <glyph glyph-name="G" unicode="G" horiz-adv-x="616" 
d="M331 63q55 0 93 27v214q0 17 17 17h120q17 0 17 -17v-192q0 -38 -42 -67.5t-96 -42.5t-105 -13q-147 0 -226 92t-79 255q0 179 84.5 264.5t235.5 85.5q73 0 135.5 -28.5t62.5 -62.5q0 -16 -11 -27.5t-28 -11.5q-21 0 -70.5 30.5t-87.5 30.5q-159 0 -159 -274
q0 -135 37.5 -207.5t101.5 -72.5z" />
    <glyph glyph-name="H" unicode="H" horiz-adv-x="668" 
d="M216 658v-266h236v266q0 17 17 17h120q17 0 17 -17v-641q0 -17 -17 -17h-120q-17 0 -17 17v301h-236v-301q0 -17 -17 -17h-120q-17 0 -17 17v641q0 17 17 17h120q17 0 17 -17z" />
    <glyph glyph-name="I" unicode="I" horiz-adv-x="278" 
d="M216 658v-641q0 -17 -17 -17h-120q-17 0 -17 17v641q0 17 17 17h120q17 0 17 -17z" />
    <glyph glyph-name="J" unicode="J" horiz-adv-x="278" 
d="M216 658v-479q0 -36 -5.5 -75.5t-21.5 -85t-40 -80.5t-65 -58.5t-93 -23.5q-16 0 -25 6t-9 14q0 16 26 22q27 6 44 31.5t24 66t9 71.5t2 74v517q0 17 17 17h120q17 0 17 -17z" />
    <glyph glyph-name="K" unicode="K" horiz-adv-x="610" 
d="M216 658v-276l212 264q23 29 61 29h20q33 0 33 -16q0 -7 -10 -20q-114 -136 -206 -246q9 -15 81.5 -130t112.5 -173q22 -31 40 -31q13 0 27 4.5t20 4.5q10 0 15 -10.5t-0.5 -24t-22.5 -20.5q-62 -25 -109 -25q-72 0 -113 63q-75 113 -146 229l-15 -19v-244q0 -17 -17 -17
h-120q-17 0 -17 17v641q0 17 17 17h120q17 0 17 -17z" />
    <glyph glyph-name="L" unicode="L" horiz-adv-x="442" 
d="M216 658v-583q29 -8 86 -8q78 0 123 12q12 4 19.5 -7t7.5 -28q0 -35 -19 -38q-69 -12 -146 -12q-225 0 -225 62v602q0 17 17 17h120q17 0 17 -17z" />
    <glyph glyph-name="M" unicode="M" horiz-adv-x="817" 
d="M273 646q89 -216 135 -400q57 206 136 400q7 17 15 23t28 6h93q39 0 42 -35q42 -443 52 -608q1 -17 -3 -24.5t-19 -7.5h-107q-17 0 -23 5.5t-7 19.5q-2 31 -7.5 101t-10 126t-9 115t-6.5 93l-3 33q-34 -82 -70.5 -210t-54.5 -222q-4 -31 -45 -31h-65q-21 0 -31 7t-14 24
q-22 102 -57.5 227t-67.5 203q-15 -272 -31 -466q-2 -14 -8 -19.5t-22 -5.5h-38q-24 0 -28.5 10.5t-1.5 36.5q6 62 50 593q1 21 12.5 28t43.5 7h79q19 0 27.5 -6t15.5 -23z" />
    <glyph glyph-name="N" unicode="N" horiz-adv-x="649" 
d="M587 658v-635q0 -23 -30 -23h-54q-17 0 -25 4t-14 16q-107 212 -306 443v-446q0 -17 -17 -17h-62q-17 0 -17 17v625q0 33 40 33h44q17 0 37 -20q178 -179 308 -400v403q0 17 17 17h62q17 0 17 -17z" />
    <glyph glyph-name="O" unicode="O" horiz-adv-x="669" 
d="M639 337q0 -161 -81 -254.5t-223 -93.5t-223.5 94.5t-81.5 256.5q0 160 80.5 253t224.5 93q142 0 223 -95t81 -254zM477 335q0 69 -13 130.5t-47 108t-84 46.5q-38 0 -66.5 -26t-44 -68t-23 -88t-7.5 -94q0 -50 8.5 -98.5t25 -91.5t45 -69t65.5 -26t66 25.5t44.5 68
t23 88.5t7.5 94z" />
    <glyph glyph-name="P" unicode="P" horiz-adv-x="567" 
d="M216 255v-238q0 -17 -17 -17h-120q-17 0 -17 17v612q0 15 7.5 22t35.5 15q75 20 164 20q136 0 204.5 -56.5t68.5 -154.5q0 -112 -66.5 -173t-165.5 -61q-47 0 -94 14zM380 471q0 141 -110 141q-27 0 -54 -5v-277q30 -14 56 -14q108 0 108 155z" />
    <glyph glyph-name="Q" unicode="Q" horiz-adv-x="668" 
d="M639 337q0 -121 -48.5 -205.5t-136.5 -121.5q30 -27 79 -54.5t85 -40.5q21 -8 18 -28q-4 -23 -35 -23q-9 0 -20 3q-73 18 -147.5 53t-116.5 71q-132 7 -209.5 100.5t-77.5 248.5q0 160 80.5 253t224.5 93q142 0 223 -95t81 -254zM477 335q0 69 -13 130.5t-47 108
t-84 46.5q-38 0 -66.5 -26t-44 -68t-23 -88t-7.5 -94q0 -69 14 -131t47.5 -107.5t82.5 -45.5q37 0 66 25.5t44.5 67.5t23 88t7.5 94z" />
    <glyph glyph-name="R" unicode="R" horiz-adv-x="577" 
d="M216 272v-255q0 -17 -17 -17h-120q-17 0 -17 17v612q0 15 7.5 22t35.5 15q75 20 164 20q134 0 201 -49t67 -133q0 -80 -45 -133.5t-126 -73.5q107 -170 133 -205q16 -21 25 -25.5t31 1.5q22 8 30 -12q8 -22 -19 -38q-3 -2 -6 -3q-57 -26 -98 -26q-71 0 -112 64
q-28 44 -134 219zM270 614q-27 0 -54 -5v-262h50q112 0 112 150q0 117 -108 117z" />
    <glyph glyph-name="S" unicode="S" horiz-adv-x="494" 
d="M221 61q46 0 75 24.5t29 69.5q0 23 -9.5 43.5t-29 37t-35.5 26.5t-42 24q-45 25 -72 42.5t-56.5 44t-43 59t-13.5 73.5q0 78 63 129.5t169 51.5q74 0 130 -29t56 -62q0 -23 -12.5 -35t-30.5 -12q-24 0 -41 19q-48 50 -103 50q-39 0 -60.5 -24t-21.5 -60q0 -40 37.5 -72
t102.5 -64q78 -39 120.5 -88t42.5 -124q0 -84 -71 -140t-192 -56q-78 0 -136.5 33.5t-58.5 70.5q0 21 12 33t29 12q20 0 36 -16q63 -61 126 -61z" />
    <glyph glyph-name="T" unicode="T" horiz-adv-x="505" 
d="M329 598v-581q0 -17 -17 -17h-120q-17 0 -17 17v581h-149q-21 0 -21 23v32q0 22 21 22h452q22 0 22 -22v-32q0 -9 -6 -16t-16 -7h-149z" />
    <glyph glyph-name="U" unicode="U" horiz-adv-x="639" 
d="M583 658v-426q0 -116 -75 -179.5t-188 -63.5t-188.5 63.5t-75.5 179.5v426q0 17 17 17h120q17 0 17 -17v-458q0 -61 36 -98t92 -37q55 0 90.5 37t35.5 98v458q0 17 17 17h85q17 0 17 -17z" />
    <glyph glyph-name="V" unicode="V" horiz-adv-x="585" 
d="M161 649q48 -217 162 -490q104 266 157 490q6 26 27 26h49q13 0 19 -9.5t4 -20.5q-37 -199 -221 -619q-4 -9 -6.5 -13.5t-10 -8.5t-19.5 -4h-57q-24 0 -36 26q-155 354 -221 609q-6 16 -0.5 28t29.5 12h93q25 0 31 -26z" />
    <glyph glyph-name="W" unicode="W" horiz-adv-x="849" 
d="M506 649q22 -179 119 -479q73 246 118 483q3 22 28 22h53q22 0 19 -30q-36 -232 -179 -619q-5 -14 -11.5 -20t-24.5 -6h-61q-26 0 -36 26q-74 199 -107 324q-46 -159 -105 -324q-5 -14 -11.5 -20t-24.5 -6h-61q-26 0 -36 26q-132 356 -180 620q-3 14 7 21.5t23 7.5h94
q27 0 33 -27q63 -299 117 -479q33 105 50 162.5t39 150.5t30 167q3 26 27 26h54q23 0 26 -26z" />
    <glyph glyph-name="X" unicode="X" horiz-adv-x="631" 
d="M281 260l-158 -246q-9 -14 -37 -14h-34q-26 0 -26 20q0 4 4 12l204 312q-20 39 -63.5 120.5t-63.5 119.5q-17 32 -35 32q-4 0 -15.5 -2.5t-16.5 -2.5q-18 0 -21 18q-3 23 30 37q49 20 99 20q19 0 34.5 -4.5t30 -18t25 -25t25 -37.5t23.5 -42.5t27.5 -54t29.5 -59.5
q55 82 137 206l3 5q3 4 3.5 5t3.5 4.5t5 4t5.5 2.5t7.5 2.5t9 0.5h34q23 0 23 -17q0 -7 -5 -15l-183 -279l153 -273q18 -32 36 -32q4 0 19.5 4.5t24.5 4.5q10 0 17 -7t7 -16q0 -26 -50 -41t-85 -15q-77 0 -113 63q-13 23 -114 208z" />
    <glyph glyph-name="Y" unicode="Y" horiz-adv-x="564" 
d="M556 647q-42 -139 -197 -371v-259q0 -17 -17 -17h-120q-17 0 -17 17v259q-128 190 -198 371q-10 28 27 28h95q25 0 35 -20q89 -191 149 -299q87 144 149 299q8 20 36 20h37q30 0 21 -28z" />
    <glyph glyph-name="Z" unicode="Z" horiz-adv-x="528" 
d="M528 162q0 -12 -2.5 -27.5t-17.5 -43t-39.5 -49t-75.5 -37.5t-119 -16q-101 0 -184 14.5t-83 50.5q0 12 11 29l314 485h-273q-21 0 -21 17v74q0 16 21 16h399q21 0 27 -10.5t-6 -30.5l-334 -513q51 -23 135 -23q81 0 127.5 17.5t69.5 62.5q9 17 21 22.5t21 -5t9 -33.5z
" />
    <glyph glyph-name="bracketleft" unicode="[" horiz-adv-x="320" 
d="M37 -8v619q0 81 23.5 108t105.5 27h86q15 0 23 -6.5t8 -15.5v-15q0 -21 -31 -21h-54q-23 0 -28.5 -11.5t-5.5 -62.5v-625q0 -51 5.5 -62.5t28.5 -11.5h54q31 0 31 -21v-15q0 -9 -8 -15.5t-23 -6.5h-86q-82 0 -105.5 27t-23.5 108z" />
    <glyph glyph-name="backslash" unicode="\" horiz-adv-x="376" 
d="M269 -56l-248 731q-3 9 5 21.5t25 18.5q21 7 37 3t20 -16l247 -727q4 -11 -3.5 -23t-24.5 -18q-48 -17 -58 10z" />
    <glyph glyph-name="bracketright" unicode="]" horiz-adv-x="320" 
d="M283 611v-619q0 -81 -23.5 -108t-105.5 -27h-86q-15 0 -23 6.5t-8 15.5v15q0 21 31 21h54q23 0 28.5 11.5t5.5 62.5v625q0 51 -5.5 62.5t-28.5 11.5h-54q-31 0 -31 21v15q0 9 8 15.5t23 6.5h86q82 0 105.5 -27t23.5 -108z" />
    <glyph glyph-name="asciicircum" unicode="^" horiz-adv-x="550" 
d="M282 692q24 0 39 -21l185 -290q6 -11 6 -20q0 -13 -10.5 -21t-27.5 -8q-51 0 -72 33l-127 205q-24 -40 -69.5 -113t-57.5 -92q-21 -33 -72 -33q-17 0 -28 8t-11 21q0 10 7 20l184 290q15 21 41 21h13z" />
    <glyph glyph-name="underscore" unicode="_" horiz-adv-x="500" 
d="M494 -93q0 -42 -46 -42h-396q-46 0 -46 42t46 42h396q46 0 46 -42z" />
    <glyph glyph-name="grave" unicode="`" horiz-adv-x="300" 
d="M253 576q14 -18 -1 -32q-23 -21 -73 14q-3 2 -7 5q-74 58 -122 98q-17 14 14 29q24 12 51 12q39 0 64 -31q60 -75 74 -95z" />
    <glyph glyph-name="a" unicode="a" horiz-adv-x="543" 
d="M252 55q41 0 79 36v194q0 150 -72 150q-43 0 -65.5 -60t-22.5 -135q0 -87 21.5 -136t59.5 -49zM362 45q-53 -56 -143 -56q-93 0 -146 70.5t-53 170.5q0 119 66.5 191t177.5 72q119 0 166.5 -61t47.5 -173v-120q0 -86 50 -86q40 0 78 55q10 14 23.5 11.5t13.5 -22.5
q0 -37 -48 -72.5t-112 -35.5q-85 0 -121 56z" />
    <glyph glyph-name="b" unicode="b" 
d="M349 244q0 88 -22 136.5t-64 48.5q-39 0 -80 -37v-222q0 -35 4 -58.5t21.5 -44.5t49.5 -21q27 0 46 18t28 49t13 62.5t4 68.5zM183 705v-244q51 32 113 32q97 0 150.5 -70t53.5 -171q0 -119 -67.5 -191t-181.5 -72q-125 0 -170 58t-45 181v477q0 17 17 17h113
q17 0 17 -17z" />
    <glyph glyph-name="c" unicode="c" horiz-adv-x="400" 
d="M360 94q29 25 45 9q13 -15 -4 -37q-23 -29 -63.5 -53t-92.5 -24q-105 0 -165 68.5t-60 185.5q0 111 60.5 180.5t163.5 69.5q64 0 111 -25t47 -54q0 -14 -9.5 -24t-26.5 -10q-25 0 -59 27t-60 27q-36 0 -56 -54.5t-20 -125.5q0 -193 96 -193q55 0 93 33z" />
    <glyph glyph-name="d" unicode="d" horiz-adv-x="548" 
d="M264 49q44 0 72 49v303q-31 28 -73 28q-48 0 -70 -56.5t-22 -131.5q0 -78 23.5 -135t69.5 -57zM483 705v-566q0 -86 50 -86q40 0 78 55q10 14 23.5 11.5t13.5 -22.5q0 -37 -48 -72.5t-112 -35.5q-86 0 -122 57q-52 -57 -147 -57q-53 0 -93 22t-62 59t-33 78.5t-11 87.5
q0 50 12.5 94.5t37.5 82t69 59t102 21.5q53 0 95 -23v235q0 17 17 17h113q17 0 17 -17z" />
    <glyph glyph-name="e" unicode="e" horiz-adv-x="423" 
d="M244 198q-46 0 -75 13q6 -76 35 -115.5t70 -39.5q48 0 88 42q22 24 41.5 15t2.5 -41q-18 -34 -61.5 -58.5t-96.5 -24.5q-107 0 -167.5 68t-60.5 187q0 112 60.5 180.5t164.5 68.5q78 0 124.5 -45t46.5 -105q0 -67 -51.5 -106t-120.5 -39zM223 257q32 0 49 26t17 63
q0 33 -14 60t-37 27q-36 0 -53 -55.5t-18 -106.5q25 -14 56 -14z" />
    <glyph glyph-name="f" unicode="f" horiz-adv-x="282" 
d="M242 742q54 0 92.5 -20t38.5 -43q0 -13 -9 -24t-29 -11q-15 0 -39.5 19.5t-50.5 19.5q-36 0 -36 -75v-126h63q20 0 18 -22q-2 -23 -23 -32l-13 -3h-45q0 -8 -1 -53.5t-3.5 -157t-5.5 -244.5q0 -23 -27 -27l-53 -8q-31 -5 -33 20l-24 470h-29q-23 0 -18 25q6 23 25 30l8 2
h14v84q0 92 53 134t127 42z" />
    <glyph glyph-name="g" unicode="g" horiz-adv-x="519" 
d="M483 259v-178q0 -145 -63 -232t-177 -87q-49 0 -91.5 18.5t-67.5 50.5q-19 24 -4 36q17 13 55 -12q36 -24 78 -24q53 0 87.5 55.5t35.5 148.5q-46 -36 -117 -36q-101 0 -150 71t-49 166q0 119 66 188t178 69q119 0 169 -61.5t50 -172.5zM264 59q44 0 72 49v177
q0 150 -77 150q-43 0 -65.5 -59.5t-22.5 -134.5q0 -74 23.5 -128t69.5 -54z" />
    <glyph glyph-name="h" unicode="h" horiz-adv-x="538" 
d="M523 53q40 0 78 55q10 14 23.5 11.5t13.5 -22.5q0 -37 -48 -72.5t-112 -35.5q-77 0 -114.5 40t-37.5 104v215q0 39 -10.5 60.5t-39.5 21.5q-28 0 -77 -42v-371q0 -17 -17 -17h-113q-17 0 -17 17v688q0 17 17 17h113q17 0 17 -17v-252q59 40 118 40q156 0 156 -162v-192
q0 -86 50 -86z" />
    <glyph glyph-name="i" unicode="i" horiz-adv-x="264" 
d="M207 644q0 -30 -21.5 -49.5t-60.5 -19.5q-37 0 -59 19.5t-22 49.5q0 31 22 51t59 20q39 0 60.5 -20t21.5 -51zM204 -11q-77 0 -114.5 40t-37.5 104v332q0 17 17 17h113q17 0 17 -17v-326q0 -86 50 -86q40 0 78 55q10 14 23.5 11.5t13.5 -22.5q0 -37 -48 -72.5t-112 -35.5
z" />
    <glyph glyph-name="j" unicode="j" horiz-adv-x="251" 
d="M207 644q0 -30 -21.5 -49.5t-60.5 -19.5q-37 0 -59 19.5t-22 49.5q0 31 22 51t59 20q39 0 60.5 -20t21.5 -51zM199 465v-290q0 -48 -4.5 -96t-18.5 -107.5t-36.5 -104t-63.5 -75t-95 -30.5q-18 0 -28 8.5t-5 18.5t25 15q43 11 61 65t18 178v418q0 17 17 17h113
q17 0 17 -17z" />
    <glyph glyph-name="k" unicode="k" horiz-adv-x="490" 
d="M199 705v-401l159 162q17 16 40 16h42q18 0 20 -11.5t-9 -19.5l-163 -148l147 -218q17 -25 28.5 -29t36.5 4q21 7 26 -11q6 -22 -23 -38q-39 -22 -86 -22q-48 0 -73.5 14t-49.5 53l-95 159v-198q0 -17 -17 -17h-113q-17 0 -17 17v688q0 17 17 17h113q17 0 17 -17z" />
    <glyph glyph-name="l" unicode="l" horiz-adv-x="261" 
d="M246 53q40 0 78 55q10 14 23.5 11.5t13.5 -22.5q0 -37 -48 -72.5t-112 -35.5q-77 0 -116.5 40t-39.5 104q0 303 18 557q2 19 32 27q62 17 67 18q15 3 24.5 -4.5t9.5 -17.5v-574q0 -86 50 -86z" />
    <glyph glyph-name="m" unicode="m" horiz-adv-x="780" 
d="M765 53q40 0 78 55q10 14 23.5 11.5t13.5 -22.5q0 -37 -48 -72.5t-112 -35.5q-77 0 -114.5 40t-37.5 104v215q0 82 -50 82q-13 0 -33 -12t-34 -31l6 -53v-317q0 -17 -17 -17h-113q-17 0 -17 17v331q0 82 -50 82q-30 0 -61 -42v-371q0 -17 -17 -17h-113q-17 0 -17 17v448
q0 17 17 17h113q17 0 17 -17v-10q51 38 111 38q84 0 115 -53q62 53 138 53q66 0 109 -41.5t43 -120.5v-192q0 -86 50 -86z" />
    <glyph glyph-name="n" unicode="n" horiz-adv-x="538" 
d="M276 430q-32 0 -77 -42v-371q0 -17 -17 -17h-113q-17 0 -17 17v448q0 17 17 17h113q17 0 17 -17v-12q53 40 122 40t110.5 -41.5t41.5 -120.5v-192q0 -86 50 -86q40 0 78 55q10 14 23.5 11.5t13.5 -22.5q0 -37 -48 -72.5t-112 -35.5q-77 0 -114.5 40t-37.5 104v215
q0 82 -50 82z" />
    <glyph glyph-name="o" unicode="o" horiz-adv-x="509" 
d="M489 242q0 -112 -60.5 -182.5t-173.5 -70.5q-114 0 -174.5 70.5t-60.5 182.5q0 111 61 181t174 70q112 0 173 -70.5t61 -180.5zM338 241q0 33 -3.5 64.5t-12 64.5t-26 53t-41.5 20q-25 0 -42.5 -19t-26 -51t-12 -63t-3.5 -64q0 -34 3.5 -65.5t12 -65t26 -53.5t42.5 -20
t42.5 19.5t26 52t11.5 63t3 64.5z" />
    <glyph glyph-name="p" unicode="p" horiz-adv-x="519" 
d="M183 18v-228q0 -17 -17 -17h-113q-17 0 -17 17v473q0 230 218 230q122 0 183.5 -69t61.5 -178q0 -65 -22.5 -122t-74.5 -96t-124 -39q-59 0 -95 29zM348 244q0 45 -8 86t-29.5 73t-54.5 32q-74 0 -74 -130v-220q35 -30 73 -30q46 0 69.5 50.5t23.5 138.5z" />
    <glyph glyph-name="q" unicode="q" horiz-adv-x="519" 
d="M483 249v-459q0 -17 -17 -17h-113q-17 0 -17 17v239q-46 -40 -112 -40q-98 0 -151 70t-53 171q0 120 67 191.5t182 71.5q119 0 166.5 -63.5t47.5 -180.5zM171 240q0 -88 22 -136.5t64 -48.5t79 41v189q0 150 -72 150q-33 0 -55 -32t-30 -73.5t-8 -89.5z" />
    <glyph glyph-name="r" unicode="r" horiz-adv-x="364" 
d="M199 465v-19q47 47 105 47q38 0 59 -19t21 -42q0 -22 -13.5 -36.5t-37.5 -14.5q-15 0 -43 12.5t-44 12.5q-21 0 -34 -24.5t-13 -68.5v-296q0 -17 -17 -17h-113q-17 0 -17 17v448q0 17 17 17h113q17 0 17 -17z" />
    <glyph glyph-name="s" unicode="s" horiz-adv-x="379" 
d="M354 409q0 -30 -36 -30q-18 0 -49 28t-60 28q-16 0 -27 -11.5t-11 -28.5q0 -20 12.5 -37.5t24.5 -26.5t39 -28q36 -25 58 -43.5t42 -50.5t20 -67q0 -72 -55 -112.5t-126 -40.5q-124 0 -157 119q-6 22 9 37.5t37 9.5t33 -35q30 -72 77 -72q23 0 37.5 14.5t14.5 36.5
q0 26 -15 46t-49 42q-30 19 -48 32.5t-39.5 35t-32 47t-10.5 54.5q0 65 48 101t112 36q58 0 104.5 -24t46.5 -60z" />
    <glyph glyph-name="t" unicode="t" horiz-adv-x="277" 
d="M242 53q40 0 78 55q10 14 23.5 11.5t13.5 -22.5q0 -37 -48 -72.5t-112 -35.5q-77 0 -114.5 40t-37.5 104v292h-23q-23 0 -18 25q6 23 25 30l8 2h13l30 104q7 23 60 38q32 9 42 5.5t10 -19.5v-128h59q20 0 18 -22q-2 -23 -23 -32l-13 -3h-41v-286q0 -86 50 -86z" />
    <glyph glyph-name="u" unicode="u" horiz-adv-x="522" 
d="M507 53q40 0 78 55q10 14 23.5 11.5t13.5 -22.5q0 -37 -48 -72.5t-112 -35.5q-84 0 -125 53q-64 -53 -145 -53q-156 0 -156 162v314q0 17 17 17h113q17 0 17 -17v-331q0 -82 50 -82q27 0 77 41v372q0 17 17 17h113q17 0 17 -17v-326q0 -86 50 -86z" />
    <glyph glyph-name="v" unicode="v" horiz-adv-x="473" 
d="M166 448q42 -173 94 -308q45 119 95 315q7 27 30 27h59q16 0 21.5 -11t-0.5 -28q-44 -163 -165 -416q-3 -7 -4 -8.5t-4.5 -7t-6.5 -7t-9 -3t-14 -1.5h-52q-17 0 -24 6.5t-13 19.5q-95 193 -167 417q-5 17 3.5 28t28.5 11h86q34 0 42 -34z" />
    <glyph glyph-name="w" unicode="w" horiz-adv-x="731" 
d="M159 445q33 -147 85 -297q53 169 85 307q4 17 12 22t37 5h33q13 0 20.5 -3.5t10 -8.5t4.5 -15q40 -171 94 -309q56 177 85 309q3 15 9 21t22 6h44q34 0 24 -39q-46 -185 -143 -416q-11 -27 -48 -27h-39q-17 0 -28 6.5t-14 11.5t-9 18q-38 83 -80 217q-47 -154 -78 -226
q-6 -14 -15 -20.5t-33 -6.5h-39q-17 0 -27.5 4.5t-13 8.5t-6.5 13q-40 86 -83 209t-62 208q-4 16 5 27.5t38 11.5h71q31 0 39 -37z" />
    <glyph glyph-name="x" unicode="x" horiz-adv-x="492" 
d="M26 -11q-22 0 -27 10.5t5 20.5l164 216l-132 220q-6 6 -0.5 16t22.5 10h101q27 0 38 -20l67 -122q9 12 43.5 57.5t53.5 69.5q12 15 40 15h36q15 0 20 -10.5t-3 -20.5l-150 -185l100 -166q18 -31 32.5 -35.5t40.5 5.5q22 9 32 -11q9 -23 -13 -39q-5 -4 -10 -6
q-55 -25 -117 -25q-35 0 -52 9t-33 36l-73 124q-9 -12 -49 -68t-61 -86q-11 -15 -40 -15h-35z" />
    <glyph glyph-name="y" unicode="y" horiz-adv-x="509" 
d="M457 465v-394q0 -140 -63 -224.5t-177 -84.5q-100 0 -149 59q-11 13 -15 24.5t-0.5 17t11 7.5t20 -2t25.5 -13q35 -24 78 -24q52 0 87 53.5t36 144.5q-50 -40 -108 -40q-166 0 -166 192v284q0 17 17 17h113q17 0 17 -17v-306q0 -100 62 -100q31 0 65 39v367q0 17 17 17
h113q17 0 17 -17z" />
    <glyph glyph-name="z" unicode="z" horiz-adv-x="423" 
d="M23 35q0 9 15 31l201 289h-171q-28 0 -28 21v85q0 21 26 21h283q31 0 40.5 -13.5t5 -27.5t-14.5 -27l-210 -296q47 -39 126 -39q72 0 96 27q35 42 40 -1q3 -34 -11 -73q-22 -36 -52.5 -54.5t-90.5 -18.5q-147 0 -232 51q-23 14 -23 25z" />
    <glyph glyph-name="braceleft" unicode="{" horiz-adv-x="320" 
d="M120 302q97 -29 97 -143v-152q0 -50 11.5 -73.5t44.5 -23.5q36 0 36 -30q0 -24 -50 -24q-89 0 -132 36.5t-43 112.5v166q0 91 -32 106q-31 14 -31 25t31 25q32 15 32 106v166q0 76 43 112.5t132 36.5q50 0 50 -24q0 -30 -36 -30q-33 0 -44.5 -23.5t-11.5 -73.5v-152
q0 -114 -97 -143z" />
    <glyph glyph-name="bar" unicode="|" horiz-adv-x="200" 
d="M151 689v-822q0 -33 -52 -33q-51 0 -51 33v822q0 33 51 33q52 0 52 -33z" />
    <glyph glyph-name="braceright" unicode="}" horiz-adv-x="320" 
d="M200 302q-97 29 -97 143v152q0 50 -11.5 73.5t-44.5 23.5q-36 0 -36 30q0 24 50 24q89 0 132 -36.5t43 -112.5v-166q0 -91 32 -106q31 -14 31 -25t-31 -25q-32 -15 -32 -106v-166q0 -76 -43 -112.5t-132 -36.5q-50 0 -50 24q0 30 36 30q33 0 44.5 23.5t11.5 73.5v152
q0 114 97 143z" />
    <glyph glyph-name="asciitilde" unicode="~" horiz-adv-x="550" 
d="M363 175q-48 0 -85 18t-63.5 36t-48.5 18q-16 0 -31 -11.5t-25 -26t-25 -26t-31 -11.5q-13 0 -22.5 9.5t-9.5 25.5q0 36 50 83.5t115 47.5q48 0 85 -18t63.5 -36t48.5 -18q16 0 31 11.5t25 26t25 26t31 11.5q13 0 22.5 -9.5t9.5 -25.5q0 -36 -50 -83.5t-115 -47.5z" />
    <glyph glyph-name="uni00A0" unicode="&#xa0;" horiz-adv-x="277" 
 />
    <glyph glyph-name="exclamdown" unicode="&#xa1;" horiz-adv-x="210" 
d="M97 373h17q36 0 39 -26q11 -112 31 -447q1 -15 -9.5 -23.5t-26.5 -8.5h-85q-16 0 -26.5 8.5t-9.5 23.5q14 240 31 447q1 26 39 26zM27 490q0 30 22 52t53 22q30 0 52.5 -22t22.5 -52t-22.5 -51.5t-52.5 -21.5q-31 0 -53 21t-22 52z" />
    <glyph glyph-name="cent" unicode="&#xa2;" 
d="M338 542v-54q66 -12 101 -45q18 -17 11 -39t-34 -22q-21 0 -45 21t-33 24v-377q33 9 85 48q15 12 28.5 7t15.5 -17.5t-7 -24.5q-48 -50 -122 -66v-57q0 -28 -37 -28q-36 0 -36 28v50q-92 8 -153 68.5t-61 177.5q0 102 58 170.5t156 82.5v53q0 28 36 28q37 0 37 -28z
M202 245q0 -121 63 -169v345q-32 -25 -47.5 -74t-15.5 -102z" />
    <glyph glyph-name="sterling" unicode="&#xa3;" 
d="M190 97h273q26 0 26 -21v-55q0 -19 -26 -21h-401q-31 0 -31 22q-1 12 16 28q45 40 74.5 95t29.5 114q0 19 -4 34h-72q-24 0 -31 7.5t-7 24.5q0 16 7 23.5t31 7.5h57q-35 69 -35 110q0 75 57 119t155 44q69 0 115.5 -28t46.5 -64q0 -21 -12.5 -34t-29.5 -13
q-15 0 -29 11.5t-23 26t-28 26t-43 11.5q-26 0 -42 -21t-16 -58q0 -44 41 -130h93q24 0 31 -7.5t7 -23.5q0 -17 -7 -24.5t-31 -7.5h-84q1 -4 1 -10q0 -52 -30 -101.5t-79 -84.5z" />
    <glyph glyph-name="currency" unicode="&#xa4;" 
d="M449 267q0 -53 -24 -98l24 -24q15 -15 15 -36q0 -15 -16 -32t-31 -17q-19 0 -36 18l-23 24q-43 -27 -99 -27q-57 0 -97 27l-24 -23q-19 -19 -35 -19t-31.5 16.5t-15.5 32.5q0 22 14 36l26 25q-26 49 -26 97q0 51 26 98l-26 25q-14 14 -14 35q0 16 15.5 32.5t31.5 16.5
q18 0 35 -17l24 -24q41 26 97 26q60 0 99 -26l23 23q18 18 36 18q15 0 31 -17t16 -32q0 -20 -15 -35l-25 -26q25 -45 25 -97zM357 267q0 43 -28 72t-70 29q-41 0 -68.5 -29t-27.5 -72q0 -42 27.5 -70.5t68.5 -28.5q42 0 70 28.5t28 70.5z" />
    <glyph glyph-name="yen" unicode="&#xa5;" 
d="M343 150v-133q0 -17 -17 -17h-113q-18 0 -18 19v131h-112q-23 0 -31 8.5t-8 23.5q0 31 39 31h112v21l-19 32h-93q-23 0 -31 8.5t-8 23.5q0 31 39 31h60l-141 260q-6 12 1 21.5t23 9.5h90q34 0 45 -23l127 -259q16 34 58.5 123t65.5 136q11 23 46 23h37q17 0 23.5 -9.5
t0.5 -21.5l-129 -260h61q39 0 39 -31q0 -15 -8 -23.5t-31 -8.5h-91l-17 -33v-20h108q39 0 39 -31q0 -15 -8 -23.5t-31 -8.5h-108z" />
    <glyph glyph-name="brokenbar" unicode="&#xa6;" horiz-adv-x="200" 
d="M151 194v-324q0 -33 -52 -33q-51 0 -51 33v324q0 33 51 33q52 0 52 -33zM151 689v-324q0 -33 -52 -33q-51 0 -51 33v324q0 33 51 33q52 0 52 -33z" />
    <glyph glyph-name="section" unicode="&#xa7;" horiz-adv-x="500" 
d="M480 261q0 -48 -33.5 -89.5t-89.5 -66.5q87 -68 87 -145q0 -73 -61 -121t-158 -48q-64 0 -124.5 32.5t-60.5 74.5q0 16 10 26t25 10t31 -11.5t28.5 -26t36.5 -26t54 -11.5q32 0 56.5 22t24.5 60q0 59 -73 102l-96 55q-117 67 -117 161q0 51 34.5 90.5t96.5 58.5
q-84 65 -84 144q0 67 53 109t147 42q60 0 109.5 -29.5t49.5 -67.5q0 -15 -10.5 -24.5t-25.5 -9.5q-19 0 -54 31.5t-64 31.5q-31 0 -49.5 -18.5t-18.5 -44.5q0 -57 57 -91l109 -66q110 -68 110 -154zM155 282q0 -23 12 -43.5t35 -38.5t39.5 -27.5t42.5 -23.5l6 -3
q55 29 55 93q0 25 -11 46t-32.5 36.5t-35.5 23t-39 18.5l-12 5q-25 -9 -42.5 -32.5t-17.5 -53.5z" />
    <glyph glyph-name="dieresis" unicode="&#xa8;" horiz-adv-x="300" 
d="M314 627q0 -28 -19.5 -47t-50.5 -19q-32 0 -51.5 19t-19.5 47t19.5 46.5t51.5 18.5q31 0 50.5 -18.5t19.5 -46.5zM125 627q0 -28 -19.5 -47t-50.5 -19q-32 0 -51.5 19t-19.5 47t19.5 46.5t51.5 18.5q31 0 50.5 -18.5t19.5 -46.5z" />
    <glyph glyph-name="copyright" unicode="&#xa9;" horiz-adv-x="630" 
d="M398 188q20 12 29.5 -0.5t-7.5 -32.5q-11 -14 -38 -27t-55 -13q-80 0 -121.5 48t-41.5 121q0 68 42.5 115.5t117.5 47.5q40 0 72.5 -20.5t32.5 -39.5q0 -13 -8.5 -21t-21.5 -8q-15 0 -35.5 21t-36.5 21q-27 0 -43.5 -33t-16.5 -79q0 -55 17.5 -89t46.5 -34q30 0 67 23z
M621 279q0 -125 -90 -207.5t-216 -82.5t-216 82.5t-90 207.5t90 208t216 83t216 -83.5t90 -207.5zM545 279q0 98 -66.5 162t-163.5 64t-163.5 -64t-66.5 -162q0 -99 66 -161.5t164 -62.5t164 62.5t66 161.5z" />
    <glyph glyph-name="ordfeminine" unicode="&#xaa;" horiz-adv-x="340" 
d="M238 368q-21 0 -29 28q-21 -31 -66 -31q-49 0 -80.5 25t-31.5 66q0 103 155 103h17q-2 77 -32 77q-14 0 -38.5 -12t-39.5 -12q-27 0 -27 26q0 22 31 35t76 13q59 0 97 -27.5t38 -88.5v-175q0 -27 -32 -27h-38zM175 414q21 0 28 18v87h-7q-60 0 -60 -54q0 -51 39 -51z" />
    <glyph glyph-name="guillemotleft" unicode="&#xab;" horiz-adv-x="474" 
d="M233 385l-78 -129l78 -129q8 -12 8 -18q0 -13 -9 -21t-23 -8q-22 0 -38 16l-120 126q-22 24 -22 34t22 34l120 126q16 16 38 16q13 0 22.5 -8.5t9.5 -20.5q0 -5 -8 -18zM437 385l-78 -129l78 -129q8 -12 8 -18q0 -13 -9 -21t-23 -8q-22 0 -38 16l-120 126q-22 24 -22 34
t22 34l120 126q16 16 38 16q13 0 22.5 -8.5t9.5 -20.5q0 -5 -8 -18z" />
    <glyph glyph-name="logicalnot" unicode="&#xac;" horiz-adv-x="550" 
d="M495 266v-163q0 -25 -12 -33.5t-40 -8.5t-40 8.5t-12 33.5v116h-280q-57 0 -57 47t57 47h327q57 0 57 -47z" />
    <glyph glyph-name="uni00AD" unicode="&#xad;" horiz-adv-x="382" 
d="M341 256q0 -23 -9 -34.5t-32 -11.5h-218q-23 0 -32 11.5t-9 34.5t9 34.5t32 11.5h218q23 0 32 -11.5t9 -34.5z" />
    <glyph glyph-name="registered" unicode="&#xae;" horiz-adv-x="630" 
d="M601 377q0 -116 -84 -193.5t-202 -77.5t-202 77.5t-84 193.5q0 117 84 194.5t202 77.5t202 -78t84 -194zM530 377q0 92 -62 151.5t-153 59.5t-153 -59.5t-62 -151.5t61.5 -150.5t153.5 -58.5t153.5 58.5t61.5 150.5zM378 231q-21 0 -28 12l-57 97v-92q0 -17 -23 -17h-42
q-23 0 -23 17v255q0 17 29.5 26.5t75.5 9.5q133 0 133 -85q0 -66 -82 -89l77 -117q12 -17 -13 -17h-47zM311 501q-12 0 -18 -1v-118h16q44 0 44 68q0 27 -10 39t-32 12z" />
    <glyph glyph-name="macron" unicode="&#xaf;" horiz-adv-x="300" 
d="M276 568h-252q-30 0 -30 32t30 32h252q30 0 30 -32t-30 -32z" />
    <glyph glyph-name="degree" unicode="&#xb0;" horiz-adv-x="279" 
d="M142 642q-26 0 -40 -19t-14 -47q0 -30 15 -48t39 -18t39 18t15 48q0 28 -14 47t-40 19zM142 451q-54 0 -91.5 35.5t-37.5 88.5t35 89t94 36t94 -36t35 -89t-37.5 -88.5t-91.5 -35.5z" />
    <glyph glyph-name="plusminus" unicode="&#xb1;" horiz-adv-x="550" 
d="M495 336q0 -21 -10 -31t-43 -10h-119v-123q0 -25 -10.5 -33.5t-37.5 -8.5t-38 8.5t-11 33.5v123h-118q-33 0 -43 9.5t-10 31.5t10 31.5t43 9.5h118v122q0 25 11 33.5t38 8.5t37.5 -8.5t10.5 -33.5v-122h119q33 0 43 -10t10 -31zM495 47q0 -47 -57 -47h-327q-57 0 -57 47
t57 47h327q57 0 57 -47z" />
    <glyph glyph-name="twosuperior" unicode="&#xb2;" horiz-adv-x="346" 
d="M160 386h137q18 0 18 -16v-38q0 -7 -0.5 -10t-4 -5.5t-11.5 -2.5h-232q-19 0 -27 6.5t-6 15.5t11 19q12 14 33.5 38t31 35t25 29.5t22.5 28.5t16.5 24.5t13.5 24.5t7 21.5t3 22.5q0 54 -50 54q-30 0 -63 -21q-15 -11 -30.5 -5.5t-15.5 24.5q0 26 46 43.5t85 17.5
q57 0 98.5 -27.5t41.5 -80.5q0 -32 -29.5 -70t-104.5 -113z" />
    <glyph glyph-name="threesuperior" unicode="&#xb3;" horiz-adv-x="346" 
d="M140 364q23 0 41.5 17t18.5 48q0 29 -14 46.5t-43 17.5h-31q-27 0 -27 25q0 24 27 24q17 0 27 1.5t21 6t16.5 15t5.5 27.5q0 20 -13 30.5t-33 10.5q-32 0 -54 -16q-21 -14 -35.5 -11.5t-15 15t7.5 25.5q17 21 53 33.5t76 12.5q53 0 89 -21t36 -63q0 -58 -63 -82
q83 -28 83 -100q0 -51 -43.5 -85t-120.5 -34q-41 0 -74 14t-42 39q-6 16 3 25t20 4q5 -3 14.5 -8.5t15.5 -8.5t20.5 -5.5t33.5 -2.5z" />
    <glyph glyph-name="acute" unicode="&#xb4;" horiz-adv-x="300" 
d="M48 576q3 4 12.5 17t25.5 33.5t34 44.5q24 31 65 31q42 0 64 -20q13 -12 2 -21q-22 -19 -123 -98q-24 -19 -53 -19q-19 0 -27 10.5t0 21.5z" />
    <glyph glyph-name="mu" unicode="&#xb5;" horiz-adv-x="538" 
d="M523 53q40 0 78 55q10 14 23.5 11.5t13.5 -22.5q0 -37 -48 -72.5t-112 -35.5q-84 0 -125 53q-15 -22 -42 -37.5t-56 -15.5q-30 0 -56 16v-215q0 -17 -17 -17h-113q-17 0 -17 17v675q0 17 17 17h113q17 0 17 -17v-331q0 -82 50 -82q43 0 77 41v372q0 17 17 17h113
q17 0 17 -17v-326q0 -86 50 -86z" />
    <glyph glyph-name="paragraph" unicode="&#xb6;" horiz-adv-x="510" 
d="M479 565v-686q0 -27 -32 -27h-33q-32 0 -32 27v689h-77v-689q0 -27 -32 -27h-33q-32 0 -32 27v435q-78 9 -127.5 54t-49.5 116q0 159 240 159h108q59 0 79.5 -18.5t20.5 -59.5z" />
    <glyph glyph-name="periodcentered" unicode="&#xb7;" horiz-adv-x="217" 
d="M183 270q0 -30 -22 -52t-53 -22q-30 0 -52.5 22t-22.5 52t22.5 51.5t52.5 21.5q31 0 53 -21t22 -52z" />
    <glyph glyph-name="cedilla" unicode="&#xb8;" horiz-adv-x="300" 
d="M123 6h68l-21 -44q42 -20 61.5 -38t19.5 -41q0 -32 -38 -57t-102 -25q-15 0 -23 1t-14 5t-6 13q0 14 34 19q17 3 24 4.5t16 9.5t9 21q0 17 -22 29q-35 19 -36 37.5t30 65.5z" />
    <glyph glyph-name="onesuperior" unicode="&#xb9;" horiz-adv-x="346" 
d="M125 328v267q-45 -13 -60 -17q-11 -3 -20 7.5t-7.5 23.5t15.5 18q45 15 81 31t51.5 23t24.5 7q14 0 18.5 -4.5t4.5 -15.5v-340q0 -18 -23 -18h-62q-23 0 -23 18z" />
    <glyph glyph-name="ordmasculine" unicode="&#xba;" horiz-adv-x="340" 
d="M330 525q0 -71 -42 -116.5t-118 -45.5q-77 0 -118.5 45.5t-41.5 116.5t42 116t118 45q75 0 117.5 -45t42.5 -116zM217 525q0 43 -11.5 78.5t-35.5 35.5q-25 0 -36.5 -34t-11.5 -77q0 -44 11.5 -80t35.5 -36q26 0 37 34.5t11 78.5z" />
    <glyph glyph-name="guillemotright" unicode="&#xbb;" horiz-adv-x="474" 
d="M115 256l-78 129q-8 13 -8 18q0 12 9.5 20.5t22.5 8.5q22 0 38 -16l120 -126q22 -24 22 -34t-22 -34l-120 -126q-16 -16 -38 -16q-14 0 -23 8t-9 21q0 6 8 18zM319 256l-78 129q-8 13 -8 18q0 12 9.5 20.5t22.5 8.5q22 0 38 -16l120 -126q22 -24 22 -34t-22 -34
l-120 -126q-16 -16 -38 -16q-14 0 -23 8t-9 21q0 6 8 18z" />
    <glyph glyph-name="onequarter" unicode="&#xbc;" horiz-adv-x="765" 
d="M714 92q0 -8 -3 -11.5t-15 -3.5h-17v-59q0 -18 -23 -18h-62q-23 0 -23 18v59h-143q-20 0 -27 14.5t6 33.5l152 231q11 17 34 17h61q25 0 25 -26v-210h17q18 0 18 -14v-31zM571 270l-87 -133h87v133zM162 -15l358 642q9 16 36 16h24q13 0 19 -5.5t2 -13.5l-358 -642
q-9 -16 -36 -16h-24q-23 0 -23 12q0 4 2 7zM132 269v267q-45 -13 -60 -17q-11 -3 -20 7.5t-7.5 23.5t15.5 18q45 15 81 31t51.5 23t24.5 7q14 0 18.5 -4.5t4.5 -15.5v-340q0 -18 -23 -18h-62q-23 0 -23 18z" />
    <glyph glyph-name="onehalf" unicode="&#xbd;" horiz-adv-x="765" 
d="M559 72h137q18 0 18 -16v-38q0 -7 -0.5 -10t-4 -5.5t-11.5 -2.5h-232q-19 0 -27 6.5t-6 15.5t11 19q12 14 33.5 38t31 35t25 29.5t22.5 28.5t16.5 24.5t13.5 24.5t7 21.5t3 22.5q0 54 -50 54q-30 0 -63 -21q-15 -11 -30.5 -5.5t-15.5 24.5q0 26 46 43.5t85 17.5
q57 0 98.5 -27.5t41.5 -80.5q0 -32 -29.5 -70t-104.5 -113zM130 -15l358 642q9 16 36 16h24q13 0 19 -5.5t2 -13.5l-358 -642q-9 -16 -36 -16h-24q-23 0 -23 12q0 4 2 7zM131 269v267q-45 -13 -60 -17q-11 -3 -20 7.5t-7.5 23.5t15.5 18q45 15 81 31t51.5 23t24.5 7
q14 0 18.5 -4.5t4.5 -15.5v-340q0 -18 -23 -18h-62q-23 0 -23 18z" />
    <glyph glyph-name="threequarters" unicode="&#xbe;" horiz-adv-x="765" 
d="M149 298q23 0 41.5 17t18.5 48q0 29 -14 46.5t-43 17.5h-31q-27 0 -27 25q0 24 27 24q17 0 27 1.5t21 6t16.5 15t5.5 27.5q0 20 -13 30.5t-33 10.5q-32 0 -54 -16q-21 -14 -35.5 -11.5t-15 15t7.5 25.5q17 21 53 33.5t76 12.5q53 0 89 -21t36 -63q0 -58 -63 -82
q83 -28 83 -100q0 -51 -43.5 -85t-120.5 -34q-41 0 -74 14t-42 39q-6 16 3 25t20 4q5 -3 14.5 -8.5t15.5 -8.5t20.5 -5.5t33.5 -2.5zM192 -15l358 642q9 16 36 16h24q13 0 19 -5.5t2 -13.5l-358 -642q-9 -16 -36 -16h-24q-23 0 -23 12q0 4 2 7zM733 92q0 -8 -3 -11.5
t-15 -3.5h-17v-59q0 -18 -23 -18h-62q-23 0 -23 18v59h-143q-20 0 -27 14.5t6 33.5l152 231q11 17 34 17h61q25 0 25 -26v-210h17q18 0 18 -14v-31zM590 270l-87 -133h87v133z" />
    <glyph glyph-name="questiondown" unicode="&#xbf;" horiz-adv-x="460" 
d="M198 296v32q0 27 32 27h27q32 0 32 -27v-32q0 -58 -62 -140q-60 -70 -60 -127q0 -104 79 -104q20 0 37.5 14t28 30.5t26 30.5t32.5 14q19 0 31.5 -11t12.5 -32q0 -32 -32 -56.5t-72.5 -36t-77.5 -11.5q-93 0 -150.5 43t-57.5 116q0 76 95 154q40 34 59.5 59t19.5 57z
M169 490q0 30 22 52t53 22q30 0 52.5 -22t22.5 -52t-22.5 -51.5t-52.5 -21.5q-31 0 -53 21t-22 52z" />
    <glyph glyph-name="Agrave" unicode="&#xc0;" horiz-adv-x="601" 
d="M430 25q-27 81 -59 180h-211q-16 -48 -58 -180q-1 -2 -2 -6t-1.5 -5.5t-2 -4.5t-3 -3.5t-4 -2t-5.5 -2t-8 -1t-11 -0.5h-41q-19 0 -19 15q0 4 19 61l195 563q7 22 35 26l80 14q20 3 27 -1t14 -23l219 -630q2 -6 2 -9q0 -16 -29 -16h-90q-24 0 -33 5.5t-14 19.5zM266 528
q-41 -124 -82 -250h163q-48 145 -81 250zM371 769q14 -18 -1 -32q-23 -21 -73 14l-7 5q-74 58 -122 98q-17 14 14 29q24 12 51 12q39 0 64 -31q60 -75 74 -95z" />
    <glyph glyph-name="Aacute" unicode="&#xc1;" horiz-adv-x="601" 
d="M430 25q-27 81 -59 180h-211q-16 -48 -58 -180q-1 -2 -2 -6t-1.5 -5.5t-2 -4.5t-3 -3.5t-4 -2t-5.5 -2t-8 -1t-11 -0.5h-41q-19 0 -19 15q0 4 19 61l195 563q7 22 35 26l80 14q20 3 27 -1t14 -23l219 -630q2 -6 2 -9q0 -16 -29 -16h-90q-24 0 -33 5.5t-14 19.5zM266 528
q-41 -124 -82 -250h163q-48 145 -81 250zM191 769q3 4 12.5 17t25.5 33.5t34 44.5q24 31 65 31q42 0 64 -20q13 -12 2 -21q-22 -19 -123 -98q-24 -19 -53 -19q-19 0 -27 10.5t0 21.5z" />
    <glyph glyph-name="Acircumflex" unicode="&#xc2;" horiz-adv-x="601" 
d="M430 25q-27 81 -59 180h-211q-16 -48 -58 -180q-1 -2 -2 -6t-1.5 -5.5t-2 -4.5t-3 -3.5t-4 -2t-5.5 -2t-8 -1t-11 -0.5h-41q-19 0 -19 15q0 4 19 61l195 563q7 22 35 26l80 14q20 3 27 -1t14 -23l219 -630q2 -6 2 -9q0 -16 -29 -16h-90q-24 0 -33 5.5t-14 19.5zM266 528
q-41 -124 -82 -250h163q-48 145 -81 250zM296 802l-83 -56q-33 -22 -56 -9q-22 11 1 39l3 3q34 36 61 66t31 34q22 22 42 22t42 -22l92 -100q27 -30 5 -42q-24 -12 -56 9z" />
    <glyph glyph-name="Atilde" unicode="&#xc3;" horiz-adv-x="601" 
d="M430 25q-27 81 -59 180h-211q-16 -48 -58 -180q-1 -2 -2 -6t-1.5 -5.5t-2 -4.5t-3 -3.5t-4 -2t-5.5 -2t-8 -1t-11 -0.5h-41q-19 0 -19 15q0 4 19 61l195 563q7 22 35 26l80 14q20 3 27 -1t14 -23l219 -630q2 -6 2 -9q0 -16 -29 -16h-90q-24 0 -33 5.5t-14 19.5zM266 528
q-41 -124 -82 -250h163q-48 145 -81 250zM340 743q-31 0 -61 24q-34 26 -50.5 26.5t-37.5 -25.5q-12 -15 -30 -19t-28.5 6.5t-2.5 32.5q13 37 43.5 64t75.5 27q31 0 61 -24q34 -26 50.5 -26.5t37.5 25.5q12 15 30 19t28.5 -6.5t2.5 -32.5q-13 -37 -43.5 -64t-75.5 -27z" />
    <glyph glyph-name="Adieresis" unicode="&#xc4;" horiz-adv-x="601" 
d="M430 25q-27 81 -59 180h-211q-16 -48 -58 -180q-1 -2 -2 -6t-1.5 -5.5t-2 -4.5t-3 -3.5t-4 -2t-5.5 -2t-8 -1t-11 -0.5h-41q-19 0 -19 15q0 4 19 61l195 563q7 22 35 26l80 14q20 3 27 -1t14 -23l219 -630q2 -6 2 -9q0 -16 -29 -16h-90q-24 0 -33 5.5t-14 19.5zM266 528
q-41 -124 -82 -250h163q-48 145 -81 250zM460 820q0 -28 -19.5 -47t-50.5 -19q-32 0 -51.5 19t-19.5 47t19.5 46.5t51.5 18.5q31 0 50.5 -18.5t19.5 -46.5zM271 820q0 -28 -19.5 -47t-50.5 -19q-32 0 -51.5 19t-19.5 47t19.5 46.5t51.5 18.5q31 0 50.5 -18.5t19.5 -46.5z
" />
    <glyph glyph-name="Aring" unicode="&#xc5;" horiz-adv-x="601" 
d="M430 25q-27 81 -59 180h-211q-16 -48 -58 -180q-1 -2 -2 -6t-1.5 -5.5t-2 -4.5t-3 -3.5t-4 -2t-5.5 -2t-8 -1t-11 -0.5h-41q-19 0 -19 15q0 4 19 61l195 563q7 22 35 26l80 14q20 3 27 -1t14 -23l219 -630q2 -6 2 -9q0 -16 -29 -16h-90q-24 0 -33 5.5t-14 19.5zM266 528
q-41 -124 -82 -250h163q-48 145 -81 250zM295 729q-39 0 -67 27t-28 66q0 41 27.5 67.5t67.5 26.5t67.5 -26.5t27.5 -67.5q0 -39 -28 -66t-67 -27zM295 779q14 0 23 12t9 31t-9 31t-23 12t-23 -12t-9 -31t9 -31t23 -12z" />
    <glyph glyph-name="AE" unicode="&#xc6;" horiz-adv-x="832" 
d="M598 608q-60 0 -114 -9l34 -217h203q32 0 32 -23v-27q0 -23 -32 -23h-192l35 -233q19 -8 79 -8q97 0 164 11q11 2 18 -9.5t7 -27.5q0 -33 -19 -36q-66 -12 -175 -12q-131 0 -178.5 12t-52.5 50l-21 149h-195l-85 -180q-5 -9 -8.5 -13.5t-12.5 -8t-24 -3.5h-35
q-30 0 -18 26l298 604q13 27 88 39.5t172 12.5q118 0 188 -12q28 -4 30 -35q2 -28 -19 -37q-9 -3 -18 -1q-43 11 -149 11zM341 518l-114 -240h148z" />
    <glyph glyph-name="Ccedilla" unicode="&#xc7;" horiz-adv-x="553" 
d="M337 -11q-2 0 -6 0.5t-6 0.5l-13 -28q48 -19 69.5 -37.5t21.5 -41.5q0 -32 -38 -57t-102 -25q-15 0 -23 1t-14 5t-6 13q0 14 34 19q17 3 24 4.5t16 9.5t9 21q0 17 -22 29q-33 18 -36 35t22 57q-119 20 -178 110.5t-59 230.5q0 160 77.5 255t226.5 95q67 0 125.5 -24
t72.5 -52q9 -18 -0.5 -33t-32.5 -15q-24 0 -45 13t-49 26t-70 13q-70 0 -106.5 -72t-36.5 -196q0 -134 40 -208.5t118 -74.5q12 0 23.5 1t22.5 3t19 4t18.5 5.5t16 5.5t15 7t12 6t11.5 6l9 5q17 9 29 -7t2 -34q-16 -28 -71.5 -52t-119.5 -24z" />
    <glyph glyph-name="Egrave" unicode="&#xc8;" horiz-adv-x="503" 
d="M216 303v-228q22 -7 75 -7q97 0 185 11q16 2 23 -15.5t1.5 -36.5t-18.5 -21q-77 -12 -175 -12q-245 0 -245 62v564q0 62 245 62q98 0 156 -12q19 -5 19 -38q0 -11 -7 -24.5t-20 -10.5q-70 13 -134 13q-58 0 -105 -10v-224h186q22 0 22 -23v-27q0 -23 -22 -23h-186z
M365 769q14 -18 -1 -32q-23 -21 -73 14l-7 5q-74 58 -122 98q-17 14 14 29q24 12 51 12q39 0 64 -31q60 -75 74 -95z" />
    <glyph glyph-name="Eacute" unicode="&#xc9;" horiz-adv-x="503" 
d="M216 303v-228q22 -7 75 -7q97 0 185 11q16 2 23 -15.5t1.5 -36.5t-18.5 -21q-77 -12 -175 -12q-245 0 -245 62v564q0 62 245 62q98 0 156 -12q19 -5 19 -38q0 -11 -7 -24.5t-20 -10.5q-70 13 -134 13q-58 0 -105 -10v-224h186q22 0 22 -23v-27q0 -23 -22 -23h-186z
M175 769q3 4 12.5 17t25.5 33.5t34 44.5q24 31 65 31q42 0 64 -20q13 -12 2 -21q-22 -19 -123 -98q-24 -19 -53 -19q-19 0 -27 10.5t0 21.5z" />
    <glyph glyph-name="Ecircumflex" unicode="&#xca;" horiz-adv-x="503" 
d="M216 303v-228q22 -7 75 -7q97 0 185 11q16 2 23 -15.5t1.5 -36.5t-18.5 -21q-77 -12 -175 -12q-245 0 -245 62v564q0 62 245 62q98 0 156 -12q19 -5 19 -38q0 -11 -7 -24.5t-20 -10.5q-70 13 -134 13q-58 0 -105 -10v-224h186q22 0 22 -23v-27q0 -23 -22 -23h-186z
M270 802l-83 -56q-33 -22 -56 -9q-22 11 1 39l3 3q34 36 61 66t31 34q22 22 42 22t42 -22l92 -100q27 -30 5 -42q-24 -12 -56 9z" />
    <glyph glyph-name="Edieresis" unicode="&#xcb;" horiz-adv-x="503" 
d="M216 303v-228q22 -7 75 -7q97 0 185 11q16 2 23 -15.5t1.5 -36.5t-18.5 -21q-77 -12 -175 -12q-245 0 -245 62v564q0 62 245 62q98 0 156 -12q19 -5 19 -38q0 -11 -7 -24.5t-20 -10.5q-70 13 -134 13q-58 0 -105 -10v-224h186q22 0 22 -23v-27q0 -23 -22 -23h-186z
M434 820q0 -28 -19.5 -47t-50.5 -19q-32 0 -51.5 19t-19.5 47t19.5 46.5t51.5 18.5q31 0 50.5 -18.5t19.5 -46.5zM245 820q0 -28 -19.5 -47t-50.5 -19q-32 0 -51.5 19t-19.5 47t19.5 46.5t51.5 18.5q31 0 50.5 -18.5t19.5 -46.5z" />
    <glyph glyph-name="Igrave" unicode="&#xcc;" horiz-adv-x="278" 
d="M216 658v-641q0 -17 -17 -17h-120q-17 0 -17 17v641q0 17 17 17h120q17 0 17 -17zM225 769q14 -18 -1 -32q-23 -21 -73 14q-3 2 -7 5q-74 58 -122 98q-17 14 14 29q24 12 51 12q39 0 64 -31q60 -75 74 -95z" />
    <glyph glyph-name="Iacute" unicode="&#xcd;" horiz-adv-x="278" 
d="M216 658v-641q0 -17 -17 -17h-120q-17 0 -17 17v641q0 17 17 17h120q17 0 17 -17zM55 769q3 4 12.5 17t25.5 33.5t34 44.5q24 31 65 31q42 0 64 -20q13 -12 2 -21q-22 -19 -123 -98q-24 -19 -53 -19q-19 0 -27 10.5t0 21.5z" />
    <glyph glyph-name="Icircumflex" unicode="&#xce;" horiz-adv-x="278" 
d="M216 658v-641q0 -17 -17 -17h-120q-17 0 -17 17v641q0 17 17 17h120q17 0 17 -17zM140 802l-83 -56q-33 -22 -56 -9q-22 11 1 39l3 3q34 36 61 66t31 34q22 22 42 22t42 -22l92 -100q27 -30 5 -42q-24 -12 -56 9z" />
    <glyph glyph-name="Idieresis" unicode="&#xcf;" horiz-adv-x="278" 
d="M216 658v-641q0 -17 -17 -17h-120q-17 0 -17 17v641q0 17 17 17h120q17 0 17 -17zM304 820q0 -28 -19.5 -47t-50.5 -19q-32 0 -51.5 19t-19.5 47t19.5 46.5t51.5 18.5q31 0 50.5 -18.5t19.5 -46.5zM115 820q0 -28 -19.5 -47t-50.5 -19q-32 0 -51.5 19t-19.5 47t19.5 46.5
t51.5 18.5q31 0 50.5 -18.5t19.5 -46.5z" />
    <glyph glyph-name="Eth" unicode="&#xd0;" horiz-adv-x="630" 
d="M271 -11q-88 0 -166 20q-25 7 -34 15t-9 22v259h-44q-9 0 -15.5 9.5t-6.5 22.5t6.5 23.5t15.5 10.5h44v258q0 15 8 22.5t35 14.5q73 20 155 20q340 0 340 -340q0 -357 -329 -357zM290 305h-73v-244q17 -3 55 -3q166 0 166 279q0 284 -172 284q-17 0 -49 -4v-246h73
q9 0 15.5 -10.5t6.5 -23.5t-6.5 -22.5t-15.5 -9.5z" />
    <glyph glyph-name="Ntilde" unicode="&#xd1;" horiz-adv-x="649" 
d="M370 743q-31 0 -61 24q-34 26 -50.5 26.5t-37.5 -25.5q-12 -15 -30 -19t-28.5 6.5t-2.5 32.5q13 37 43.5 64t75.5 27q31 0 61 -24q34 -26 50.5 -26.5t37.5 25.5q12 15 30 19t28.5 -6.5t2.5 -32.5q-13 -37 -43.5 -64t-75.5 -27zM587 658v-635q0 -23 -30 -23h-54
q-17 0 -25 4t-14 16q-107 212 -306 443v-446q0 -17 -17 -17h-62q-17 0 -17 17v625q0 33 40 33h44q17 0 37 -20q178 -179 308 -400v403q0 17 17 17h62q17 0 17 -17z" />
    <glyph glyph-name="Ograve" unicode="&#xd2;" horiz-adv-x="669" 
d="M639 337q0 -161 -81 -254.5t-223 -93.5t-223.5 94.5t-81.5 256.5q0 160 80.5 253t224.5 93q142 0 223 -95t81 -254zM477 335q0 69 -13 130.5t-47 108t-84 46.5q-38 0 -66.5 -26t-44 -68t-23 -88t-7.5 -94q0 -50 8.5 -98.5t25 -91.5t45 -69t65.5 -26t66 25.5t44.5 68
t23 88.5t7.5 94zM430 769q14 -18 -1 -32q-23 -21 -73 14l-7 5q-74 58 -122 98q-17 14 14 29q24 12 51 12q39 0 64 -31q60 -75 74 -95z" />
    <glyph glyph-name="Oacute" unicode="&#xd3;" horiz-adv-x="669" 
d="M639 337q0 -161 -81 -254.5t-223 -93.5t-223.5 94.5t-81.5 256.5q0 160 80.5 253t224.5 93q142 0 223 -95t81 -254zM477 335q0 69 -13 130.5t-47 108t-84 46.5q-38 0 -66.5 -26t-44 -68t-23 -88t-7.5 -94q0 -50 8.5 -98.5t25 -91.5t45 -69t65.5 -26t66 25.5t44.5 68
t23 88.5t7.5 94zM240 769q3 4 12.5 17t25.5 33.5t34 44.5q24 31 65 31q42 0 64 -20q13 -12 2 -21q-22 -19 -123 -98q-24 -19 -53 -19q-19 0 -27 10.5t0 21.5z" />
    <glyph glyph-name="Ocircumflex" unicode="&#xd4;" horiz-adv-x="669" 
d="M639 337q0 -161 -81 -254.5t-223 -93.5t-223.5 94.5t-81.5 256.5q0 160 80.5 253t224.5 93q142 0 223 -95t81 -254zM477 335q0 69 -13 130.5t-47 108t-84 46.5q-38 0 -66.5 -26t-44 -68t-23 -88t-7.5 -94q0 -50 8.5 -98.5t25 -91.5t45 -69t65.5 -26t66 25.5t44.5 68
t23 88.5t7.5 94zM335 802l-83 -56q-33 -22 -56 -9q-22 11 1 39l3 3q34 36 61 66t31 34q22 22 42 22t42 -22l92 -100q27 -30 5 -42q-24 -12 -56 9z" />
    <glyph glyph-name="Otilde" unicode="&#xd5;" horiz-adv-x="669" 
d="M639 337q0 -161 -81 -254.5t-223 -93.5t-223.5 94.5t-81.5 256.5q0 160 80.5 253t224.5 93q142 0 223 -95t81 -254zM477 335q0 69 -13 130.5t-47 108t-84 46.5q-38 0 -66.5 -26t-44 -68t-23 -88t-7.5 -94q0 -50 8.5 -98.5t25 -91.5t45 -69t65.5 -26t66 25.5t44.5 68
t23 88.5t7.5 94zM379 743q-31 0 -61 24q-34 26 -50.5 26.5t-37.5 -25.5q-12 -15 -30 -19t-28.5 6.5t-2.5 32.5q13 37 43.5 64t75.5 27q31 0 61 -24q34 -26 50.5 -26.5t37.5 25.5q12 15 30 19t28.5 -6.5t2.5 -32.5q-13 -37 -43.5 -64t-75.5 -27z" />
    <glyph glyph-name="Odieresis" unicode="&#xd6;" horiz-adv-x="669" 
d="M639 337q0 -161 -81 -254.5t-223 -93.5t-223.5 94.5t-81.5 256.5q0 160 80.5 253t224.5 93q142 0 223 -95t81 -254zM477 335q0 69 -13 130.5t-47 108t-84 46.5q-38 0 -66.5 -26t-44 -68t-23 -88t-7.5 -94q0 -50 8.5 -98.5t25 -91.5t45 -69t65.5 -26t66 25.5t44.5 68
t23 88.5t7.5 94zM499 820q0 -28 -19.5 -47t-50.5 -19q-32 0 -51.5 19t-19.5 47t19.5 46.5t51.5 18.5q31 0 50.5 -18.5t19.5 -46.5zM310 820q0 -28 -19.5 -47t-50.5 -19q-32 0 -51.5 19t-19.5 47t19.5 46.5t51.5 18.5q31 0 50.5 -18.5t19.5 -46.5z" />
    <glyph glyph-name="multiply" unicode="&#xd7;" horiz-adv-x="550" 
d="M153 442l121 -119l121 120q19 16 29.5 13.5t30.5 -20.5q17 -17 19.5 -28.5t-12.5 -30.5l-121 -122l121 -121q15 -17 12.5 -29.5t-19.5 -29.5q-12 -12 -20 -17t-18.5 -4t-21.5 12l-120 121l-122 -119q-16 -15 -28.5 -13t-30.5 21q-17 17 -20 28t13 31l118 120l-118 120
q-27 27 7 60q17 17 28 19.5t31 -12.5z" />
    <glyph glyph-name="Oslash" unicode="&#xd8;" horiz-adv-x="669" 
d="M502 715l-21 -62q76 -42 117 -124.5t41 -191.5q0 -161 -81 -254.5t-223 -93.5q-44 0 -76 7l-19 -56q-4 -12 -19.5 -15.5t-34.5 4.5q-12 5 -17 14t-3 17l21 63q-75 41 -116 123.5t-41 193.5q0 160 80.5 253t224.5 93q39 0 76 -8l19 58q4 11 18.5 15t31.5 -3q29 -12 22 -33
zM192 344q0 -125 35 -202q24 72 77.5 227t80.5 237q-27 19 -52 19q-38 0 -66.5 -26.5t-44 -70t-23 -90t-7.5 -94.5zM477 335q0 118 -35 201l-157 -464q26 -18 51 -18q37 0 66 26.5t44.5 69.5t23 90t7.5 95z" />
    <glyph glyph-name="Ugrave" unicode="&#xd9;" horiz-adv-x="639" 
d="M583 658v-426q0 -116 -75 -179.5t-188 -63.5t-188.5 63.5t-75.5 179.5v426q0 17 17 17h120q17 0 17 -17v-458q0 -61 36 -98t92 -37q55 0 90.5 37t35.5 98v458q0 17 17 17h85q17 0 17 -17zM425 769q14 -18 -1 -32q-23 -21 -73 14l-7 5q-74 58 -122 98q-17 14 14 29
q24 12 51 12q39 0 64 -31q60 -75 74 -95z" />
    <glyph glyph-name="Uacute" unicode="&#xda;" horiz-adv-x="639" 
d="M583 658v-426q0 -116 -75 -179.5t-188 -63.5t-188.5 63.5t-75.5 179.5v426q0 17 17 17h120q17 0 17 -17v-458q0 -61 36 -98t92 -37q55 0 90.5 37t35.5 98v458q0 17 17 17h85q17 0 17 -17zM228 766q3 4 12.5 17t25.5 33.5t34 44.5q24 31 65 31q42 0 64 -20q13 -12 2 -21
q-22 -19 -123 -98q-24 -19 -53 -19q-19 0 -27 10.5t0 21.5z" />
    <glyph glyph-name="Ucircumflex" unicode="&#xdb;" horiz-adv-x="639" 
d="M583 658v-426q0 -116 -75 -179.5t-188 -63.5t-188.5 63.5t-75.5 179.5v426q0 17 17 17h120q17 0 17 -17v-458q0 -61 36 -98t92 -37q55 0 90.5 37t35.5 98v458q0 17 17 17h85q17 0 17 -17zM330 802l-83 -56q-33 -22 -56 -9q-22 11 1 39l3 3q34 36 61 66t31 34q22 22 42 22
t42 -22l92 -100q27 -30 5 -42q-24 -12 -56 9z" />
    <glyph glyph-name="Udieresis" unicode="&#xdc;" horiz-adv-x="639" 
d="M583 658v-426q0 -116 -75 -179.5t-188 -63.5t-188.5 63.5t-75.5 179.5v426q0 17 17 17h120q17 0 17 -17v-458q0 -61 36 -98t92 -37q55 0 90.5 37t35.5 98v458q0 17 17 17h85q17 0 17 -17zM484 820q0 -28 -19.5 -47t-50.5 -19q-32 0 -51.5 19t-19.5 47t19.5 46.5
t51.5 18.5q31 0 50.5 -18.5t19.5 -46.5zM295 820q0 -28 -19.5 -47t-50.5 -19q-32 0 -51.5 19t-19.5 47t19.5 46.5t51.5 18.5q31 0 50.5 -18.5t19.5 -46.5z" />
    <glyph glyph-name="Yacute" unicode="&#xdd;" horiz-adv-x="564" 
d="M556 647q-42 -139 -197 -371v-259q0 -17 -17 -17h-120q-17 0 -17 17v259q-128 190 -198 371q-10 28 27 28h95q25 0 35 -20q89 -191 149 -299q87 144 149 299q8 20 36 20h37q30 0 21 -28zM207 769q3 4 12.5 17t25.5 33.5t34 44.5q24 31 65 31q42 0 64 -20q13 -12 2 -21
q-22 -19 -123 -98q-24 -19 -53 -19q-19 0 -27 10.5t0 21.5z" />
    <glyph glyph-name="Thorn" unicode="&#xde;" horiz-adv-x="544" 
d="M216 151v-134q0 -17 -17 -17h-120q-17 0 -17 17v641q0 17 17 17h120q17 0 17 -17v-111q42 21 92 21q99 0 163.5 -57.5t64.5 -159.5q0 -107 -62.5 -163.5t-165.5 -56.5q-57 0 -92 20zM272 494q-26 0 -56 -15v-261q19 -11 54 -11q108 0 108 142q0 74 -25.5 109.5
t-80.5 35.5z" />
    <glyph glyph-name="germandbls" unicode="&#xdf;" horiz-adv-x="576" 
d="M52 17v461q0 131 56 197.5t178 66.5q77 0 132 -39.5t55 -104.5q0 -25 -14.5 -51.5t-32 -46t-32 -48t-14.5 -56.5q0 -10 2 -18.5t7.5 -17t9 -14t13.5 -14.5t14 -12.5t17.5 -14t16.5 -13.5q35 -28 51.5 -43.5t34.5 -45.5t18 -61q0 -72 -53.5 -112.5t-123.5 -40.5
q-55 0 -98.5 30.5t-56.5 86.5q-5 23 4.5 38.5t24.5 15.5q37 0 48 -40q30 -72 77 -72q19 0 30.5 14.5t11.5 36.5q0 24 -12 45.5t-25 34t-37 31.5q-49 38 -70.5 66.5t-21.5 57.5q0 32 14.5 59.5t31.5 45.5t31.5 54.5t14.5 84.5q0 51 -21 79.5t-56 28.5q-36 0 -57 -33t-21 -98
v-538q0 -17 -17 -17h-113q-17 0 -17 17z" />
    <glyph glyph-name="agrave" unicode="&#xe0;" horiz-adv-x="543" 
d="M252 55q41 0 79 36v194q0 150 -72 150q-43 0 -65.5 -60t-22.5 -135q0 -87 21.5 -136t59.5 -49zM362 45q-53 -56 -143 -56q-93 0 -146 70.5t-53 170.5q0 119 66.5 191t177.5 72q119 0 166.5 -61t47.5 -173v-120q0 -86 50 -86q40 0 78 55q10 14 23.5 11.5t13.5 -22.5
q0 -37 -48 -72.5t-112 -35.5q-85 0 -121 56zM347 576q14 -18 -1 -32q-23 -21 -73 14l-7 5q-74 58 -122 98q-17 14 14 29q24 12 51 12q39 0 64 -31q60 -75 74 -95z" />
    <glyph glyph-name="aacute" unicode="&#xe1;" horiz-adv-x="543" 
d="M252 55q41 0 79 36v194q0 150 -72 150q-43 0 -65.5 -60t-22.5 -135q0 -87 21.5 -136t59.5 -49zM362 45q-53 -56 -143 -56q-93 0 -146 70.5t-53 170.5q0 119 66.5 191t177.5 72q119 0 166.5 -61t47.5 -173v-120q0 -86 50 -86q40 0 78 55q10 14 23.5 11.5t13.5 -22.5
q0 -37 -48 -72.5t-112 -35.5q-85 0 -121 56zM167 576q3 4 12.5 17t25.5 33.5t34 44.5q24 31 65 31q42 0 64 -20q13 -12 2 -21q-22 -19 -123 -98q-24 -19 -53 -19q-19 0 -27 10.5t0 21.5z" />
    <glyph glyph-name="acircumflex" unicode="&#xe2;" horiz-adv-x="543" 
d="M252 55q41 0 79 36v194q0 150 -72 150q-43 0 -65.5 -60t-22.5 -135q0 -87 21.5 -136t59.5 -49zM362 45q-53 -56 -143 -56q-93 0 -146 70.5t-53 170.5q0 119 66.5 191t177.5 72q119 0 166.5 -61t47.5 -173v-120q0 -86 50 -86q40 0 78 55q10 14 23.5 11.5t13.5 -22.5
q0 -37 -48 -72.5t-112 -35.5q-85 0 -121 56zM252 609l-83 -56q-33 -22 -56 -9q-22 11 1 39l3 3q34 36 61 66t31 34q22 22 42 22t42 -22l92 -100q27 -30 5 -42q-24 -12 -56 9z" />
    <glyph glyph-name="atilde" unicode="&#xe3;" horiz-adv-x="543" 
d="M252 55q41 0 79 36v194q0 150 -72 150q-43 0 -65.5 -60t-22.5 -135q0 -87 21.5 -136t59.5 -49zM362 45q-53 -56 -143 -56q-93 0 -146 70.5t-53 170.5q0 119 66.5 191t177.5 72q119 0 166.5 -61t47.5 -173v-120q0 -86 50 -86q40 0 78 55q10 14 23.5 11.5t13.5 -22.5
q0 -37 -48 -72.5t-112 -35.5q-85 0 -121 56zM296 550q-31 0 -61 24q-34 26 -50.5 26.5t-37.5 -25.5q-12 -15 -30 -19t-28.5 6.5t-2.5 32.5q13 37 43.5 64t75.5 27q31 0 61 -24q34 -26 50.5 -26.5t37.5 25.5q12 15 30 19t28.5 -6.5t2.5 -32.5q-13 -37 -43.5 -64t-75.5 -27z
" />
    <glyph glyph-name="adieresis" unicode="&#xe4;" horiz-adv-x="543" 
d="M252 55q41 0 79 36v194q0 150 -72 150q-43 0 -65.5 -60t-22.5 -135q0 -87 21.5 -136t59.5 -49zM362 45q-53 -56 -143 -56q-93 0 -146 70.5t-53 170.5q0 119 66.5 191t177.5 72q119 0 166.5 -61t47.5 -173v-120q0 -86 50 -86q40 0 78 55q10 14 23.5 11.5t13.5 -22.5
q0 -37 -48 -72.5t-112 -35.5q-85 0 -121 56zM416 627q0 -28 -19.5 -47t-50.5 -19q-32 0 -51.5 19t-19.5 47t19.5 46.5t51.5 18.5q31 0 50.5 -18.5t19.5 -46.5zM227 627q0 -28 -19.5 -47t-50.5 -19q-32 0 -51.5 19t-19.5 47t19.5 46.5t51.5 18.5q31 0 50.5 -18.5t19.5 -46.5z
" />
    <glyph glyph-name="aring" unicode="&#xe5;" horiz-adv-x="543" 
d="M252 55q41 0 79 36v194q0 150 -72 150q-43 0 -65.5 -60t-22.5 -135q0 -87 21.5 -136t59.5 -49zM362 45q-53 -56 -143 -56q-93 0 -146 70.5t-53 170.5q0 119 66.5 191t177.5 72q119 0 166.5 -61t47.5 -173v-120q0 -86 50 -86q40 0 78 55q10 14 23.5 11.5t13.5 -22.5
q0 -37 -48 -72.5t-112 -35.5q-85 0 -121 56zM251 536q-39 0 -67 27t-28 66q0 41 27.5 67.5t67.5 26.5t67.5 -26.5t27.5 -67.5q0 -39 -28 -66t-67 -27zM251 586q14 0 23 12t9 31t-9 31t-23 12t-23 -12t-9 -31t9 -31t23 -12z" />
    <glyph glyph-name="ae" unicode="&#xe6;" horiz-adv-x="700" 
d="M521 198q-46 0 -75 13q6 -76 35 -115.5t70 -39.5q48 0 88 42q22 24 41.5 15t2.5 -41q-18 -34 -61.5 -58.5t-96.5 -24.5q-110 0 -172 73q-50 -73 -154 -73q-77 0 -128 36.5t-51 111.5q0 83 57.5 120.5t145.5 37.5q42 0 74 -4q0 72 -15.5 104t-57.5 32q-29 0 -51 -13.5
t-38.5 -26.5t-32.5 -13q-20 0 -33 10t-13 29q0 33 46 56.5t139 23.5q47 0 83 -18t52 -49q57 67 146 67q78 0 124.5 -45t46.5 -105q0 -67 -51.5 -106t-120.5 -39zM171 146q0 -42 17 -62t43 -20q25 0 51 15.5t38 38.5q-22 52 -23 110q-25 3 -48 3q-78 0 -78 -85zM500 257
q32 0 49 26t17 63q0 33 -14 60t-37 27q-36 0 -53 -55.5t-18 -106.5q25 -14 56 -14z" />
    <glyph glyph-name="ccedilla" unicode="&#xe7;" horiz-adv-x="400" 
d="M360 94q29 25 45 9q13 -15 -4 -37q-56 -69 -142 -76l-13 -28q42 -20 61.5 -38t19.5 -41q0 -32 -38 -57t-102 -25q-15 0 -23 1t-14 5t-6 13q0 14 34 19q17 3 24 4.5t16 9.5t9 21q0 17 -22 29q-33 18 -36 35t22 57q-81 16 -126 81.5t-45 166.5q0 111 60.5 180.5t163.5 69.5
q64 0 111 -25t47 -54q0 -14 -9.5 -24t-26.5 -10q-25 0 -59 27t-60 27q-36 0 -56 -54.5t-20 -125.5q0 -193 96 -193q55 0 93 33z" />
    <glyph glyph-name="egrave" unicode="&#xe8;" horiz-adv-x="423" 
d="M244 198q-46 0 -75 13q6 -76 35 -115.5t70 -39.5q48 0 88 42q22 24 41.5 15t2.5 -41q-18 -34 -61.5 -58.5t-96.5 -24.5q-107 0 -167.5 68t-60.5 187q0 112 60.5 180.5t164.5 68.5q78 0 124.5 -45t46.5 -105q0 -67 -51.5 -106t-120.5 -39zM223 257q32 0 49 26t17 63
q0 33 -14 60t-37 27q-36 0 -53 -55.5t-18 -106.5q25 -14 56 -14zM312 576q14 -18 -1 -32q-23 -21 -73 14q-3 2 -7 5q-74 58 -122 98q-17 14 14 29q24 12 51 12q39 0 64 -31q60 -75 74 -95z" />
    <glyph glyph-name="eacute" unicode="&#xe9;" horiz-adv-x="423" 
d="M244 198q-46 0 -75 13q6 -76 35 -115.5t70 -39.5q48 0 88 42q22 24 41.5 15t2.5 -41q-18 -34 -61.5 -58.5t-96.5 -24.5q-107 0 -167.5 68t-60.5 187q0 112 60.5 180.5t164.5 68.5q78 0 124.5 -45t46.5 -105q0 -67 -51.5 -106t-120.5 -39zM223 257q32 0 49 26t17 63
q0 33 -14 60t-37 27q-36 0 -53 -55.5t-18 -106.5q25 -14 56 -14zM132 576q3 4 12.5 17t25.5 33.5t34 44.5q24 31 65 31q42 0 64 -20q13 -12 2 -21q-22 -19 -123 -98q-24 -19 -53 -19q-19 0 -27 10.5t0 21.5z" />
    <glyph glyph-name="ecircumflex" unicode="&#xea;" horiz-adv-x="423" 
d="M244 198q-46 0 -75 13q6 -76 35 -115.5t70 -39.5q48 0 88 42q22 24 41.5 15t2.5 -41q-18 -34 -61.5 -58.5t-96.5 -24.5q-107 0 -167.5 68t-60.5 187q0 112 60.5 180.5t164.5 68.5q78 0 124.5 -45t46.5 -105q0 -67 -51.5 -106t-120.5 -39zM223 257q32 0 49 26t17 63
q0 33 -14 60t-37 27q-36 0 -53 -55.5t-18 -106.5q25 -14 56 -14zM237 609l-83 -56q-33 -22 -56 -9q-22 11 1 39l3 3q34 36 61 66t31 34q22 22 42 22t42 -22l92 -100q27 -30 5 -42q-24 -12 -56 9z" />
    <glyph glyph-name="edieresis" unicode="&#xeb;" horiz-adv-x="423" 
d="M244 198q-46 0 -75 13q6 -76 35 -115.5t70 -39.5q48 0 88 42q22 24 41.5 15t2.5 -41q-18 -34 -61.5 -58.5t-96.5 -24.5q-107 0 -167.5 68t-60.5 187q0 112 60.5 180.5t164.5 68.5q78 0 124.5 -45t46.5 -105q0 -67 -51.5 -106t-120.5 -39zM223 257q32 0 49 26t17 63
q0 33 -14 60t-37 27q-36 0 -53 -55.5t-18 -106.5q25 -14 56 -14zM401 627q0 -28 -19.5 -47t-50.5 -19q-32 0 -51.5 19t-19.5 47t19.5 46.5t51.5 18.5q31 0 50.5 -18.5t19.5 -46.5zM212 627q0 -28 -19.5 -47t-50.5 -19q-32 0 -51.5 19t-19.5 47t19.5 46.5t51.5 18.5
q31 0 50.5 -18.5t19.5 -46.5z" />
    <glyph glyph-name="igrave" unicode="&#xec;" horiz-adv-x="264" 
d="M204 -11q-77 0 -114.5 40t-37.5 104v332q0 17 17 17h113q17 0 17 -17v-326q0 -86 50 -86q40 0 78 55q10 14 23.5 11.5t13.5 -22.5q0 -37 -48 -72.5t-112 -35.5zM211 576q14 -18 -1 -32q-23 -21 -73 14q-3 2 -7 5q-74 58 -122 98q-17 14 14 29q24 12 51 12q39 0 64 -31
q60 -75 74 -95z" />
    <glyph glyph-name="iacute" unicode="&#xed;" horiz-adv-x="264" 
d="M204 -11q-77 0 -114.5 40t-37.5 104v332q0 17 17 17h113q17 0 17 -17v-326q0 -86 50 -86q40 0 78 55q10 14 23.5 11.5t13.5 -22.5q0 -37 -48 -72.5t-112 -35.5zM41 576q3 4 12.5 17t25.5 33.5t34 44.5q24 31 65 31q42 0 64 -20q13 -12 2 -21q-22 -19 -123 -98
q-24 -19 -53 -19q-19 0 -27 10.5t0 21.5z" />
    <glyph glyph-name="icircumflex" unicode="&#xee;" horiz-adv-x="264" 
d="M204 -11q-77 0 -114.5 40t-37.5 104v332q0 17 17 17h113q17 0 17 -17v-326q0 -86 50 -86q40 0 78 55q10 14 23.5 11.5t13.5 -22.5q0 -37 -48 -72.5t-112 -35.5zM127 609l-83 -56q-33 -22 -56 -9q-22 11 1 39l3 3q34 36 61 66t31 34q22 22 42 22t42 -22l92 -100
q27 -30 5 -42q-24 -12 -56 9z" />
    <glyph glyph-name="idieresis" unicode="&#xef;" horiz-adv-x="264" 
d="M204 -11q-77 0 -114.5 40t-37.5 104v332q0 17 17 17h113q17 0 17 -17v-326q0 -86 50 -86q40 0 78 55q10 14 23.5 11.5t13.5 -22.5q0 -37 -48 -72.5t-112 -35.5zM291 627q0 -28 -19.5 -47t-50.5 -19q-32 0 -51.5 19t-19.5 47t19.5 46.5t51.5 18.5q31 0 50.5 -18.5
t19.5 -46.5zM102 627q0 -28 -19.5 -47t-50.5 -19q-32 0 -51.5 19t-19.5 47t19.5 46.5t51.5 18.5q31 0 50.5 -18.5t19.5 -46.5z" />
    <glyph glyph-name="eth" unicode="&#xf0;" horiz-adv-x="512" 
d="M391 686l-69 -42q170 -168 170 -388q0 -119 -61 -193t-177 -74q-112 0 -173 71.5t-61 182.5q0 105 56.5 177.5t157.5 72.5q40 0 67 -9q-28 78 -58 119q-21 -11 -61 -35q-32 -19 -46 8q-10 18 3 25l71 40l-48 48q-11 11 -3 22.5t29 11.5q42 0 94 -42l70 40q32 18 45 -9
q8 -18 -6 -26zM341 241q0 81 -20 166q-32 20 -66 20q-41 0 -62.5 -50.5t-21.5 -130.5q0 -69 20.5 -129.5t62.5 -60.5q26 0 44 18t27 48t12.5 59t3.5 60z" />
    <glyph glyph-name="ntilde" unicode="&#xf1;" horiz-adv-x="538" 
d="M276 430q-32 0 -77 -42v-371q0 -17 -17 -17h-113q-17 0 -17 17v448q0 17 17 17h113q17 0 17 -17v-12q53 40 122 40t110.5 -41.5t41.5 -120.5v-192q0 -86 50 -86q40 0 78 55q10 14 23.5 11.5t13.5 -22.5q0 -37 -48 -72.5t-112 -35.5q-77 0 -114.5 40t-37.5 104v215
q0 82 -50 82zM314 550q-31 0 -61 24q-34 26 -50.5 26.5t-37.5 -25.5q-12 -15 -30 -19t-28.5 6.5t-2.5 32.5q13 37 43.5 64t75.5 27q31 0 61 -24q34 -26 50.5 -26.5t37.5 25.5q12 15 30 19t28.5 -6.5t2.5 -32.5q-13 -37 -43.5 -64t-75.5 -27z" />
    <glyph glyph-name="ograve" unicode="&#xf2;" horiz-adv-x="509" 
d="M489 242q0 -112 -60.5 -182.5t-173.5 -70.5q-114 0 -174.5 70.5t-60.5 182.5q0 111 61 181t174 70q112 0 173 -70.5t61 -180.5zM338 241q0 33 -3.5 64.5t-12 64.5t-26 53t-41.5 20q-25 0 -42.5 -19t-26 -51t-12 -63t-3.5 -64q0 -34 3.5 -65.5t12 -65t26 -53.5t42.5 -20
t42.5 19.5t26 52t11.5 63t3 64.5zM340 576q14 -18 -1 -32q-23 -21 -73 14l-7 5q-74 58 -122 98q-17 14 14 29q24 12 51 12q39 0 64 -31q60 -75 74 -95z" />
    <glyph glyph-name="oacute" unicode="&#xf3;" horiz-adv-x="509" 
d="M489 242q0 -112 -60.5 -182.5t-173.5 -70.5q-114 0 -174.5 70.5t-60.5 182.5q0 111 61 181t174 70q112 0 173 -70.5t61 -180.5zM338 241q0 33 -3.5 64.5t-12 64.5t-26 53t-41.5 20q-25 0 -42.5 -19t-26 -51t-12 -63t-3.5 -64q0 -34 3.5 -65.5t12 -65t26 -53.5t42.5 -20
t42.5 19.5t26 52t11.5 63t3 64.5zM150 576q3 4 12.5 17t25.5 33.5t34 44.5q24 31 65 31q42 0 64 -20q13 -12 2 -21q-22 -19 -123 -98q-24 -19 -53 -19q-19 0 -27 10.5t0 21.5z" />
    <glyph glyph-name="ocircumflex" unicode="&#xf4;" horiz-adv-x="509" 
d="M489 242q0 -112 -60.5 -182.5t-173.5 -70.5q-114 0 -174.5 70.5t-60.5 182.5q0 111 61 181t174 70q112 0 173 -70.5t61 -180.5zM338 241q0 33 -3.5 64.5t-12 64.5t-26 53t-41.5 20q-25 0 -42.5 -19t-26 -51t-12 -63t-3.5 -64q0 -34 3.5 -65.5t12 -65t26 -53.5t42.5 -20
t42.5 19.5t26 52t11.5 63t3 64.5zM255 609l-83 -56q-33 -22 -56 -9q-22 11 1 39l3 3q34 36 61 66t31 34q22 22 42 22t42 -22l92 -100q27 -30 5 -42q-24 -12 -56 9z" />
    <glyph glyph-name="otilde" unicode="&#xf5;" horiz-adv-x="509" 
d="M489 242q0 -112 -60.5 -182.5t-173.5 -70.5q-114 0 -174.5 70.5t-60.5 182.5q0 111 61 181t174 70q112 0 173 -70.5t61 -180.5zM338 241q0 33 -3.5 64.5t-12 64.5t-26 53t-41.5 20q-25 0 -42.5 -19t-26 -51t-12 -63t-3.5 -64q0 -34 3.5 -65.5t12 -65t26 -53.5t42.5 -20
t42.5 19.5t26 52t11.5 63t3 64.5zM299 550q-31 0 -61 24q-34 26 -50.5 26.5t-37.5 -25.5q-12 -15 -30 -19t-28.5 6.5t-2.5 32.5q13 37 43.5 64t75.5 27q31 0 61 -24q34 -26 50.5 -26.5t37.5 25.5q12 15 30 19t28.5 -6.5t2.5 -32.5q-13 -37 -43.5 -64t-75.5 -27z" />
    <glyph glyph-name="odieresis" unicode="&#xf6;" horiz-adv-x="509" 
d="M489 242q0 -112 -60.5 -182.5t-173.5 -70.5q-114 0 -174.5 70.5t-60.5 182.5q0 111 61 181t174 70q112 0 173 -70.5t61 -180.5zM338 241q0 33 -3.5 64.5t-12 64.5t-26 53t-41.5 20q-25 0 -42.5 -19t-26 -51t-12 -63t-3.5 -64q0 -34 3.5 -65.5t12 -65t26 -53.5t42.5 -20
t42.5 19.5t26 52t11.5 63t3 64.5zM419 627q0 -28 -19.5 -47t-50.5 -19q-32 0 -51.5 19t-19.5 47t19.5 46.5t51.5 18.5q31 0 50.5 -18.5t19.5 -46.5zM230 627q0 -28 -19.5 -47t-50.5 -19q-32 0 -51.5 19t-19.5 47t19.5 46.5t51.5 18.5q31 0 50.5 -18.5t19.5 -46.5z" />
    <glyph glyph-name="divide" unicode="&#xf7;" horiz-adv-x="550" 
d="M348 433q0 -29 -22.5 -49t-53.5 -20q-30 0 -52.5 20t-22.5 49q0 28 22.5 48t52.5 20q31 0 53.5 -20t22.5 -48zM348 81q0 -28 -22.5 -48.5t-53.5 -20.5q-30 0 -52.5 20.5t-22.5 48.5q0 29 22.5 49t52.5 20q31 0 53.5 -20t22.5 -49zM495 256q0 -47 -57 -47h-327
q-57 0 -57 47t57 47h327q57 0 57 -47z" />
    <glyph glyph-name="oslash" unicode="&#xf8;" horiz-adv-x="509" 
d="M489 242q0 -112 -60.5 -182.5t-173.5 -70.5q-33 0 -61 6l-17 -43q-4 -9 -16.5 -12t-28.5 3q-25 11 -21 23l20 52q-55 31 -83 89.5t-28 134.5q0 111 61 181t174 70q32 0 59 -6l18 44q4 9 18 12t30 -4q22 -9 17 -23l-20 -52q55 -31 83.5 -89.5t28.5 -132.5zM171 246
q0 -59 9 -104l111 286q-17 15 -36 15q-25 0 -42.5 -19t-26 -51t-12 -63t-3.5 -64zM338 241q0 57 -9 101l-111 -285q15 -15 37 -15q25 0 42.5 19.5t26 52t11.5 63t3 64.5z" />
    <glyph glyph-name="ugrave" unicode="&#xf9;" horiz-adv-x="522" 
d="M507 53q40 0 78 55q10 14 23.5 11.5t13.5 -22.5q0 -37 -48 -72.5t-112 -35.5q-84 0 -125 53q-64 -53 -145 -53q-156 0 -156 162v314q0 17 17 17h113q17 0 17 -17v-331q0 -82 50 -82q27 0 77 41v372q0 17 17 17h113q17 0 17 -17v-326q0 -86 50 -86zM338 576q14 -18 -1 -32
q-23 -21 -73 14l-7 5q-74 58 -122 98q-17 14 14 29q24 12 51 12q39 0 64 -31q60 -75 74 -95z" />
    <glyph glyph-name="uacute" unicode="&#xfa;" horiz-adv-x="522" 
d="M507 53q40 0 78 55q10 14 23.5 11.5t13.5 -22.5q0 -37 -48 -72.5t-112 -35.5q-84 0 -125 53q-64 -53 -145 -53q-156 0 -156 162v314q0 17 17 17h113q17 0 17 -17v-331q0 -82 50 -82q27 0 77 41v372q0 17 17 17h113q17 0 17 -17v-326q0 -86 50 -86zM150 576q3 4 12.5 17
t25.5 33.5t34 44.5q24 31 65 31q42 0 64 -20q13 -12 2 -21q-22 -19 -123 -98q-24 -19 -53 -19q-19 0 -27 10.5t0 21.5z" />
    <glyph glyph-name="ucircumflex" unicode="&#xfb;" horiz-adv-x="522" 
d="M507 53q40 0 78 55q10 14 23.5 11.5t13.5 -22.5q0 -37 -48 -72.5t-112 -35.5q-84 0 -125 53q-64 -53 -145 -53q-156 0 -156 162v314q0 17 17 17h113q17 0 17 -17v-331q0 -82 50 -82q27 0 77 41v372q0 17 17 17h113q17 0 17 -17v-326q0 -86 50 -86zM247 609l-83 -56
q-33 -22 -56 -9q-22 11 1 39l3 3q34 36 61 66t31 34q22 22 42 22t42 -22l92 -100q27 -30 5 -42q-24 -12 -56 9z" />
    <glyph glyph-name="udieresis" unicode="&#xfc;" horiz-adv-x="522" 
d="M507 53q40 0 78 55q10 14 23.5 11.5t13.5 -22.5q0 -37 -48 -72.5t-112 -35.5q-84 0 -125 53q-64 -53 -145 -53q-156 0 -156 162v314q0 17 17 17h113q17 0 17 -17v-331q0 -82 50 -82q27 0 77 41v372q0 17 17 17h113q17 0 17 -17v-326q0 -86 50 -86zM411 627
q0 -28 -19.5 -47t-50.5 -19q-32 0 -51.5 19t-19.5 47t19.5 46.5t51.5 18.5q31 0 50.5 -18.5t19.5 -46.5zM222 627q0 -28 -19.5 -47t-50.5 -19q-32 0 -51.5 19t-19.5 47t19.5 46.5t51.5 18.5q31 0 50.5 -18.5t19.5 -46.5z" />
    <glyph glyph-name="yacute" unicode="&#xfd;" horiz-adv-x="509" 
d="M457 465v-394q0 -140 -63 -224.5t-177 -84.5q-100 0 -149 59q-11 13 -15 24.5t-0.5 17t11 7.5t20 -2t25.5 -13q35 -24 78 -24q52 0 87 53.5t36 144.5q-50 -40 -108 -40q-166 0 -166 192v284q0 17 17 17h113q17 0 17 -17v-306q0 -100 62 -100q31 0 65 39v367q0 17 17 17
h113q17 0 17 -17zM165 576q3 4 12.5 17t25.5 33.5t34 44.5q24 31 65 31q42 0 64 -20q13 -12 2 -21q-22 -19 -123 -98q-24 -19 -53 -19q-19 0 -27 10.5t0 21.5z" />
    <glyph glyph-name="thorn" unicode="&#xfe;" horiz-adv-x="531" 
d="M199 15v-232q0 -17 -17 -17h-113q-17 0 -17 17v922q0 17 17 17h113q17 0 17 -17v-252q47 40 112 40q97 0 148.5 -70t51.5 -171q0 -114 -61 -188.5t-167 -74.5q-51 0 -84 26zM360 244q0 174 -81 174q-44 0 -80 -36v-296q33 -25 71 -25q42 0 66 48t24 135z" />
    <glyph glyph-name="ydieresis" unicode="&#xff;" horiz-adv-x="509" 
d="M457 465v-394q0 -140 -63 -224.5t-177 -84.5q-100 0 -149 59q-11 13 -15 24.5t-0.5 17t11 7.5t20 -2t25.5 -13q35 -24 78 -24q52 0 87 53.5t36 144.5q-50 -40 -108 -40q-166 0 -166 192v284q0 17 17 17h113q17 0 17 -17v-306q0 -100 62 -100q31 0 65 39v367q0 17 17 17
h113q17 0 17 -17zM415 627q0 -28 -19.5 -47t-50.5 -19q-32 0 -51.5 19t-19.5 47t19.5 46.5t51.5 18.5q31 0 50.5 -18.5t19.5 -46.5zM226 627q0 -28 -19.5 -47t-50.5 -19q-32 0 -51.5 19t-19.5 47t19.5 46.5t51.5 18.5q31 0 50.5 -18.5t19.5 -46.5z" />
    <glyph glyph-name="dotlessi" unicode="&#x131;" horiz-adv-x="264" 
d="M204 -11q-77 0 -114.5 40t-37.5 104v332q0 17 17 17h113q17 0 17 -17v-326q0 -86 50 -86q40 0 78 55q10 14 23.5 11.5t13.5 -22.5q0 -37 -48 -72.5t-112 -35.5z" />
    <glyph glyph-name="Lslash" unicode="&#x141;" horiz-adv-x="437" 
d="M216 658v-237l59 30q35 18 48 -22q3 -10 -2 -22t-18 -19l-87 -45v-268q42 -10 105 -8t104 12q12 4 19.5 -7t7.5 -28q0 -35 -19 -38q-61 -12 -146 -12q-225 0 -225 62v209l-16 -8q-15 -10 -25.5 -6t-14.5 10t-8 18q-9 27 20 41l44 22v316q0 17 17 17h120q17 0 17 -17z" />
    <glyph glyph-name="lslash" unicode="&#x142;" horiz-adv-x="261" 
d="M246 53q40 0 78 55q10 14 23.5 11.5t13.5 -22.5q0 -37 -48 -72.5t-112 -35.5q-77 0 -116.5 40t-39.5 104q0 103 1 179q-15 -7 -27.5 -3t-18.5 16q-13 27 12 39l36 17q3 137 15 309q2 18 32 27q53 16 67 18q15 3 24.5 -4.5t9.5 -17.5v-259l8 4q36 18 50 -8q5 -9 1 -21.5
t-16 -18.5l-43 -22v-249q0 -86 50 -86z" />
    <glyph glyph-name="OE" unicode="&#x152;" horiz-adv-x="904" 
d="M627 303v-228q88 -18 240 4q6 2 10.5 0.5t8.5 -1t6.5 -2.5t4.5 -3.5t3 -4.5t2 -5.5t1 -6v-6v-6v-5.5q0 -29 -30 -33q-73 -12 -155 -12q-67 0 -127.5 12t-87.5 37q-61 -54 -168 -54q-142 0 -223.5 94.5t-81.5 256.5q0 160 80.5 253t224.5 93q109 0 168 -54q27 25 88 37.5
t127 12.5q77 0 146 -12q19 -4 19 -37q0 -19 -8 -33.5t-18 -12.5q-122 29 -230 2v-213h176q22 0 22 -23v-27q0 -23 -22 -23h-176zM356 63q71 0 117 52v444q-47 54 -117 54q-77 0 -120.5 -76.5t-43.5 -196.5t43.5 -198.5t120.5 -78.5z" />
    <glyph glyph-name="oe" unicode="&#x153;" horiz-adv-x="742" 
d="M565 198q-46 0 -75 13q6 -76 35 -115.5t70 -39.5q48 0 88 42q22 24 41.5 15t2.5 -41q-18 -34 -61.5 -58.5t-96.5 -24.5q-103 0 -160 65q-60 -65 -154 -65q-114 0 -174.5 70.5t-60.5 182.5q0 111 61 181t174 70q91 0 154 -66q61 66 157 66q78 0 124.5 -45t46.5 -105
q0 -67 -51.5 -106t-120.5 -39zM338 241q0 33 -3.5 64.5t-12 64.5t-26 53t-41.5 20q-25 0 -42.5 -19t-26 -51t-12 -63t-3.5 -64q0 -34 3.5 -65.5t12 -65t26 -53.5t42.5 -20t42.5 19.5t26 52t11.5 63t3 64.5zM544 257q32 0 49 26t17 63q0 33 -14 60t-37 27q-36 0 -53 -55.5
t-18 -106.5q25 -14 56 -14z" />
    <glyph glyph-name="Scaron" unicode="&#x160;" horiz-adv-x="494" 
d="M221 61q46 0 75 24.5t29 69.5q0 23 -9.5 43.5t-29 37t-35.5 26.5t-42 24q-45 25 -72 42.5t-56.5 44t-43 59t-13.5 73.5q0 78 63 129.5t169 51.5q74 0 130 -29t56 -62q0 -23 -12.5 -35t-30.5 -12q-24 0 -41 19q-48 50 -103 50q-39 0 -60.5 -24t-21.5 -60q0 -40 37.5 -72
t102.5 -64q78 -39 120.5 -88t42.5 -124q0 -84 -71 -140t-192 -56q-78 0 -136.5 33.5t-58.5 70.5q0 21 12 33t29 12q20 0 36 -16q63 -61 126 -61zM165 887l83 -56l82 56q31 21 54.5 10t-0.5 -40l-3 -3l-92 -100q-22 -22 -42 -22t-42 22q-4 4 -31 34t-61 66q-26 29 -5 42
t55 -8q1 0 2 -1z" />
    <glyph glyph-name="scaron" unicode="&#x161;" horiz-adv-x="379" 
d="M354 409q0 -30 -36 -30q-18 0 -49 28t-60 28q-16 0 -27 -11.5t-11 -28.5q0 -20 12.5 -37.5t24.5 -26.5t39 -28q36 -25 58 -43.5t42 -50.5t20 -67q0 -72 -55 -112.5t-126 -40.5q-124 0 -157 119q-6 22 9 37.5t37 9.5t33 -35q30 -72 77 -72q23 0 37.5 14.5t14.5 36.5
q0 26 -15 46t-49 42q-30 19 -48 32.5t-39.5 35t-32 47t-10.5 54.5q0 65 48 101t112 36q58 0 104.5 -24t46.5 -60zM117 694l83 -56l82 56q31 21 54.5 10t-0.5 -40l-3 -3l-92 -100q-22 -22 -42 -22t-42 22q-4 4 -31 34t-61 66q-26 29 -5 42t55 -8q1 0 2 -1z" />
    <glyph glyph-name="Ydieresis" unicode="&#x178;" horiz-adv-x="564" 
d="M556 647q-42 -139 -197 -371v-259q0 -17 -17 -17h-120q-17 0 -17 17v259q-128 190 -198 371q-10 28 27 28h95q25 0 35 -20q89 -191 149 -299q87 144 149 299q8 20 36 20h37q30 0 21 -28zM456 820q0 -28 -19.5 -47t-50.5 -19q-32 0 -51.5 19t-19.5 47t19.5 46.5t51.5 18.5
q31 0 50.5 -18.5t19.5 -46.5zM267 820q0 -28 -19.5 -47t-50.5 -19q-32 0 -51.5 19t-19.5 47t19.5 46.5t51.5 18.5q31 0 50.5 -18.5t19.5 -46.5z" />
    <glyph glyph-name="Zcaron" unicode="&#x17d;" horiz-adv-x="528" 
d="M528 162q0 -12 -2.5 -27.5t-17.5 -43t-39.5 -49t-75.5 -37.5t-119 -16q-101 0 -184 14.5t-83 50.5q0 12 11 29l314 485h-273q-21 0 -21 17v74q0 16 21 16h399q21 0 27 -10.5t-6 -30.5l-334 -513q51 -23 135 -23q81 0 127.5 17.5t69.5 62.5q9 17 21 22.5t21 -5t9 -33.5z
M178 887l83 -56l82 56q31 21 54.5 10t-0.5 -40l-3 -3l-92 -100q-22 -22 -42 -22t-42 22q-4 4 -31 34t-61 66q-26 29 -5 42t55 -8q1 0 2 -1z" />
    <glyph glyph-name="zcaron" unicode="&#x17e;" horiz-adv-x="423" 
d="M23 35q0 9 15 31l201 289h-171q-28 0 -28 21v85q0 21 26 21h283q31 0 40.5 -13.5t5 -27.5t-14.5 -27l-210 -296q47 -39 126 -39q72 0 96 27q35 42 40 -1q3 -34 -11 -73q-22 -36 -52.5 -54.5t-90.5 -18.5q-147 0 -232 51q-23 14 -23 25zM135 694l83 -56l82 56
q31 21 54.5 10t-0.5 -40l-3 -3l-92 -100q-22 -22 -42 -22t-42 22q-4 4 -31 34t-61 66q-26 29 -5 42t55 -8q1 0 2 -1z" />
    <glyph glyph-name="florin" unicode="&#x192;" 
d="M384 289h-71q-26 -213 -30 -241q-45 -286 -227 -286q-70 0 -70 40q0 20 11 31t31 11q16 0 37 -8t26 -8q23 0 37.5 99t31.5 281q5 55 7 81h-38q-23 0 -30 7.5t-7 22.5q0 18 6.5 25.5t30.5 7.5h43q1 13 4 35.5t4 35.5q9 95 65.5 150.5t156.5 55.5q50 0 91.5 -17.5
t41.5 -48.5q0 -18 -11.5 -28t-27.5 -10q-17 0 -45.5 20t-50.5 20q-59 0 -80 -208q-1 -3 -1 -5h65q24 0 30.5 -7.5t6.5 -25.5q0 -10 -2 -15.5t-10.5 -10t-24.5 -4.5z" />
    <glyph glyph-name="circumflex" unicode="&#x2c6;" horiz-adv-x="300" 
d="M151 609l-83 -56q-33 -22 -56 -9q-22 11 1 39l3 3q34 36 61 66t31 34q22 22 42 22t42 -22l92 -100q27 -30 5 -42q-24 -12 -56 9z" />
    <glyph glyph-name="caron" unicode="&#x2c7;" horiz-adv-x="300" 
d="M68 694l83 -56l82 56q31 21 54.5 10t-0.5 -40l-3 -3l-92 -100q-22 -22 -42 -22t-42 22q-4 4 -31 34t-61 66q-26 29 -5 42t55 -8q1 0 2 -1z" />
    <glyph glyph-name="breve" unicode="&#x2d8;" horiz-adv-x="300" 
d="M150 550q-62 0 -99 40t-33 89q1 12 9 19.5t18 7.5q22 0 30 -22q24 -60 75 -60q50 0 74 60q8 22 31 22q10 0 18 -7.5t9 -19.5q4 -49 -33 -89t-99 -40z" />
    <glyph glyph-name="dotaccent" unicode="&#x2d9;" horiz-adv-x="300" 
d="M220 635q0 -28 -19.5 -47t-50.5 -19q-32 0 -51.5 19t-19.5 47t19.5 46.5t51.5 18.5q31 0 50.5 -18.5t19.5 -46.5z" />
    <glyph glyph-name="ring" unicode="&#x2da;" horiz-adv-x="300" 
d="M149 536q-39 0 -67 27t-28 66q0 41 27.5 67.5t67.5 26.5t67.5 -26.5t27.5 -67.5q0 -39 -28 -66t-67 -27zM149 586q14 0 23 12t9 31t-9 31t-23 12t-23 -12t-9 -31t9 -31t23 -12z" />
    <glyph glyph-name="ogonek" unicode="&#x2db;" horiz-adv-x="300" 
d="M122 10q24 4 31 4q26 0 40 -7q-20 -14 -39.5 -43.5t-19.5 -56.5q0 -35 51 -35q26 0 49 10q15 6 24 0t9 -20q0 -20 -39 -34.5t-72 -14.5q-54 0 -87 20t-33 58q0 28 28.5 64t57.5 55z" />
    <glyph glyph-name="tilde" unicode="&#x2dc;" horiz-adv-x="300" 
d="M196 550q-31 0 -61 24q-34 26 -50.5 26.5t-37.5 -25.5q-12 -15 -30 -19t-28.5 6.5t-2.5 32.5q13 37 43.5 64t75.5 27q31 0 61 -24q34 -26 50.5 -26.5t37.5 25.5q12 15 30 19t28.5 -6.5t2.5 -32.5q-13 -37 -43.5 -64t-75.5 -27z" />
    <glyph glyph-name="hungarumlaut" unicode="&#x2dd;" horiz-adv-x="300" 
d="M135 578l61 100q19 30 67 30q51 0 56 -22q2 -8 -5 -15l-111 -112q-14 -14 -42 -14q-17 0 -26 9t0 24zM-15 578l61 100q19 30 67 30q51 0 56 -22q2 -8 -5 -15l-111 -112q-14 -14 -42 -14q-17 0 -26 9t0 24z" />
    <glyph glyph-name="uni03A9" unicode="&#x3a9;" horiz-adv-x="682" 
d="M343 686q76 0 138 -27.5t100 -73.5t58 -103.5t20 -120.5q0 -80 -40.5 -156.5t-114.5 -127.5h122q31 0 31 -23v-32q0 -9 -8 -15.5t-23 -6.5h-260v40q68 29 106 116.5t38 189.5q0 74 -17.5 134.5t-57 100t-94.5 39.5q-82 0 -126 -79.5t-44 -193.5q0 -102 38.5 -190
t106.5 -117v-40h-260q-15 0 -23 6.5t-8 15.5v32q0 23 31 23h121q-73 51 -113.5 127.5t-40.5 156.5q0 85 34.5 157.5t109 120t176.5 47.5z" />
    <glyph glyph-name="pi" unicode="&#x3c0;" horiz-adv-x="508" 
d="M443 412v-273q0 -86 50 -86q40 0 78 55q10 14 23.5 11.5t13.5 -22.5q0 -37 -48 -72.5t-112 -35.5q-77 0 -114.5 40t-37.5 104v279h-97v-395q0 -17 -17 -17h-113q-17 0 -17 17v395h-22q-15 0 -24.5 3t-13 9t-4.5 10.5t-1 12.5q0 10 1.5 16t11.5 12.5t30 6.5h438
q20 0 30 -6.5t11.5 -12.5t1.5 -16q0 -8 -1 -12.5t-4.5 -10.5t-13 -9t-24.5 -3h-25z" />
    <glyph glyph-name="endash" unicode="&#x2013;" horiz-adv-x="500" 
d="M480 256q0 -22 -9 -32.5t-33 -10.5h-376q-24 0 -33 10.5t-9 32.5t9 32.5t33 10.5h376q24 0 33 -10.5t9 -32.5z" />
    <glyph glyph-name="emdash" unicode="&#x2014;" horiz-adv-x="1000" 
d="M980 256q0 -22 -9 -32.5t-33 -10.5h-876q-24 0 -33 10.5t-9 32.5t9 32.5t33 10.5h876q24 0 33 -10.5t9 -32.5z" />
    <glyph glyph-name="quoteleft" unicode="&#x2018;" horiz-adv-x="217" 
d="M17 566q0 62 43 104.5t93 42.5q18 0 24.5 -7.5t2 -15.5t-14.5 -11q-20 -7 -34.5 -26t-14.5 -37q0 -7 9 -14l18 -9t16 -10.5t14.5 -18.5t4.5 -25q0 -28 -22 -47t-52 -19q-41 0 -64 27t-23 66z" />
    <glyph glyph-name="quoteright" unicode="&#x2019;" horiz-adv-x="217" 
d="M192 630q0 -62 -43 -104.5t-93 -42.5q-18 0 -24.5 7.5t-2 15.5t14.5 11q20 7 34.5 26t14.5 37q0 7 -9 14l-18 9t-16 10.5t-14.5 18.5t-4.5 25q0 28 22 47t52 19q41 0 64 -27t23 -66z" />
    <glyph glyph-name="quotesinglbase" unicode="&#x201a;" horiz-adv-x="217" 
d="M192 32q0 -62 -43 -104.5t-93 -42.5q-18 0 -24.5 7.5t-2 15.5t14.5 11q20 7 34.5 26t14.5 37q0 7 -9 14l-18 9t-16 10.5t-14.5 18.5t-4.5 25q0 28 22 47t52 19q41 0 64 -27t23 -66z" />
    <glyph glyph-name="quotedblleft" unicode="&#x201c;" horiz-adv-x="392" 
d="M16 566q0 62 43 104.5t93 42.5q18 0 24.5 -7.5t2 -15.5t-14.5 -11q-20 -7 -34.5 -26t-14.5 -37q0 -7 9 -14l18 -9t16 -10.5t14.5 -18.5t4.5 -25q0 -28 -22 -47t-52 -19q-41 0 -64 27t-23 66zM211 566q0 62 43 104.5t93 42.5q18 0 24.5 -7.5t2 -15.5t-14.5 -11
q-20 -7 -34.5 -26t-14.5 -37q0 -7 9 -14l18 -9t16 -10.5t14.5 -18.5t4.5 -25q0 -28 -22 -47t-52 -19q-41 0 -64 27t-23 66z" />
    <glyph glyph-name="quotedblright" unicode="&#x201d;" horiz-adv-x="392" 
d="M180 630q0 -62 -43 -104.5t-93 -42.5q-18 0 -24.5 7.5t-2 15.5t14.5 11q20 7 34.5 26t14.5 37q0 7 -9 14l-18 9t-16 10.5t-14.5 18.5t-4.5 25q0 28 22 47t52 19q41 0 64 -27t23 -66zM375 630q0 -62 -43 -104.5t-93 -42.5q-18 0 -24.5 7.5t-2 15.5t14.5 11q20 7 34.5 26
t14.5 37q0 7 -9 14l-18 9t-16 10.5t-14.5 18.5t-4.5 25q0 28 22 47t52 19q41 0 64 -27t23 -66z" />
    <glyph glyph-name="quotedblbase" unicode="&#x201e;" horiz-adv-x="392" 
d="M180 32q0 -62 -43 -104.5t-93 -42.5q-18 0 -24.5 7.5t-2 15.5t14.5 11q20 7 34.5 26t14.5 37q0 7 -9 14l-18 9t-16 10.5t-14.5 18.5t-4.5 25q0 28 22 47t52 19q41 0 64 -27t23 -66zM375 32q0 -62 -43 -104.5t-93 -42.5q-18 0 -24.5 7.5t-2 15.5t14.5 11q20 7 34.5 26
t14.5 37q0 7 -9 14l-18 9t-16 10.5t-14.5 18.5t-4.5 25q0 28 22 47t52 19q41 0 64 -27t23 -66z" />
    <glyph glyph-name="dagger" unicode="&#x2020;" horiz-adv-x="460" 
d="M242 -94h-24q-30 0 -33 26q-25 236 -25 311q0 78 32 171h-152q-24 0 -24 19v21q0 18 24 18h152q-30 172 -30 177q14 17 68 17q51 0 68 -17q0 -1 -4 -22q-11 -65 -26 -155h150q25 0 25 -19v-21q0 -18 -25 -18h-150q32 -80 32 -171q0 -75 -25 -311q-3 -26 -33 -26z" />
    <glyph glyph-name="daggerdbl" unicode="&#x2021;" horiz-adv-x="460" 
d="M297 287q0 -19 -3.5 -33.5t-12.5 -40.5t-15 -48h148q29 0 29 -18v-31q0 -19 -29 -19h-146q21 -125 29 -167l1 -4q-15 -18 -68 -18q-54 0 -68 17l30 172h-147q-29 0 -29 18v31q0 19 29 19h146q-4 13 -10.5 32.5t-9 29t-6 21.5t-4.5 21t-1 18q0 11 2.5 25t5 22.5t11 35
t12.5 39.5h-146q-29 0 -29 19v31q0 18 29 18h147q-30 171 -30 172q14 17 68 17q51 0 68 -17q0 -1 -1 -6q-9 -47 -29 -166h146q29 0 29 -19v-31q0 -18 -29 -18h-148q5 -16 13 -38.5t10.5 -31t5 -22.5t2.5 -30z" />
    <glyph glyph-name="bullet" unicode="&#x2022;" horiz-adv-x="300" 
d="M270 268q0 -46 -35.5 -79t-84.5 -33q-48 0 -84 33t-36 79q0 47 35.5 80t84.5 33q50 0 85 -33t35 -80z" />
    <glyph glyph-name="ellipsis" unicode="&#x2026;" horiz-adv-x="652" 
d="M183 63q0 -30 -22 -52t-53 -22q-30 0 -52.5 22t-22.5 52t22.5 51.5t52.5 21.5q31 0 53 -21t22 -52zM401 63q0 -30 -22 -52t-53 -22q-30 0 -52.5 22t-22.5 52t22.5 51.5t52.5 21.5q31 0 53 -21t22 -52zM619 63q0 -30 -22 -52t-53 -22q-30 0 -52.5 22t-22.5 52t22.5 51.5
t52.5 21.5q31 0 53 -21t22 -52z" />
    <glyph glyph-name="perthousand" unicode="&#x2030;" horiz-adv-x="1172" 
d="M361 428q0 -91 -45.5 -144t-125.5 -53q-81 0 -125.5 52.5t-44.5 144.5t44.5 145.5t125.5 53.5q80 0 125.5 -54t45.5 -145zM241 429q0 142 -51 142q-52 0 -52 -142q0 -141 51 -141q52 0 52 141zM788 186q0 -91 -45.5 -144t-125.5 -53q-81 0 -125.5 52.5t-44.5 144.5
t44.5 145.5t125.5 53.5q80 0 125.5 -54t45.5 -145zM668 187q0 142 -51 142q-52 0 -52 -142q0 -141 51 -141q52 0 52 141zM184 -15l358 642q9 16 36 16h24q13 0 19 -5.5t2 -13.5l-358 -642q-9 -16 -36 -16h-24q-23 0 -23 12q0 4 2 7zM1152 186q0 -91 -45.5 -144t-125.5 -53
q-81 0 -125.5 52.5t-44.5 144.5t44.5 145.5t125.5 53.5q80 0 125.5 -54t45.5 -145zM1032 187q0 142 -51 142q-52 0 -52 -142q0 -141 51 -141q52 0 52 141z" />
    <glyph glyph-name="guilsinglleft" unicode="&#x2039;" horiz-adv-x="290" 
d="M243 385l-78 -129l78 -129q8 -12 8 -18q0 -13 -9 -21t-23 -8q-22 0 -38 16l-120 126q-22 24 -22 34t22 34l120 126q16 16 38 16q13 0 22.5 -8.5t9.5 -20.5q0 -5 -8 -18z" />
    <glyph glyph-name="guilsinglright" unicode="&#x203a;" horiz-adv-x="290" 
d="M125 256l-78 129q-8 13 -8 18q0 12 9.5 20.5t22.5 8.5q22 0 38 -16l120 -126q22 -24 22 -34t-22 -34l-120 -126q-16 -16 -38 -16q-14 0 -23 8t-9 21q0 6 8 18z" />
    <glyph glyph-name="fraction" unicode="&#x2044;" horiz-adv-x="125" 
d="M-157 -15l358 642q9 16 36 16h24q13 0 19 -5.5t2 -13.5l-358 -642q-9 -16 -36 -16h-24q-23 0 -23 12q0 4 2 7z" />
    <glyph glyph-name="Euro" unicode="&#x20ac;" 
d="M418 336h-199v-20q0 -23 1 -33h198q24 0 31 -7.5t7 -23.5q0 -17 -7 -24.5t-31 -7.5h-194q3 -80 42.5 -123t96 -40.5t109.5 45.5q11 9 23.5 5t16 -17t-8.5 -34q-17 -27 -62.5 -47t-104.5 -20q-115 0 -183 62.5t-85 168.5h-25q-24 0 -30.5 7.5t-6.5 24.5q0 11 2 17t10.5 10
t24.5 4h19v24q0 20 1 29h-20q-24 0 -30.5 7.5t-6.5 24.5q0 11 2 17t10.5 10t24.5 4h25q20 103 88.5 166.5t176.5 63.5q62 0 111.5 -21.5t62.5 -48.5q10 -20 -0.5 -37t-33.5 -17q-14 0 -28 9t-25.5 19.5t-34 19.5t-51.5 9q-42 0 -71 -45t-40 -118h195q24 0 31 -7.5t7 -23.5
q0 -17 -7 -24.5t-31 -7.5z" />
    <glyph glyph-name="trademark" unicode="&#x2122;" horiz-adv-x="610" 
d="M182 617v-225q0 -13 -9 -20.5t-23 -7.5h-40q-13 0 -22 8t-9 20v225h-53q-21 0 -21 20v19q0 19 21 19h208q21 0 21 -19v-19q0 -20 -21 -20h-52zM508 675h40q34 0 36 -20l21 -260q0 -31 -35 -31h-34q-34 0 -35 19l-9 137q-20 -62 -34 -122q-2 -9 -3.5 -12.5t-8 -6
t-20.5 -2.5h-19q-13 0 -20 3t-8.5 6.5t-3.5 11.5q-27 104 -33 123l-9 -138q-3 -19 -35 -19h-17q-15 0 -21 6t-5 25l22 260q1 20 42 20h31q39 0 79 -150q39 150 79 150z" />
    <glyph glyph-name="partialdiff" unicode="&#x2202;" 
d="M66 633l-12 21q-9 17 20 32q73 36 152 36q125 0 204 -96t79 -254q0 -182 -82.5 -282.5t-201.5 -100.5q-103 0 -158.5 62t-55.5 148q0 112 66.5 176.5t155.5 64.5q94 0 142 -72q0 136 -45.5 213.5t-106.5 77.5q-63 0 -104 -26q-39 -26 -53 0zM232 71q47 0 85 56.5
t47 137.5q-16 39 -44 68.5t-61 29.5q-46 0 -78 -46.5t-32 -115.5q0 -61 23 -95.5t60 -34.5z" />
    <glyph glyph-name="Delta" unicode="&#x2206;" horiz-adv-x="607" 
d="M33 0q-26 0 -27.5 15t10.5 41l202 581q8 24 35 28l90 14q18 3 26.5 -2t13.5 -21l213 -610q15 -46 -20 -46h-543zM275 550l-155 -465h299z" />
    <glyph glyph-name="product" unicode="&#x220f;" horiz-adv-x="646" 
d="M556 598v-701q0 -17 -17 -17h-110q-17 0 -17 17v701h-178v-701q0 -17 -17 -17h-110q-17 0 -17 17v701h-69q-31 0 -31 23v32q0 9 8 15.5t23 6.5h604q15 0 23 -6.5t8 -15.5v-32q0 -23 -31 -23h-69z" />
    <glyph glyph-name="summation" unicode="&#x2211;" horiz-adv-x="532" 
d="M392 310l-248 -321h370q25 0 25 -23v-64q0 -22 -25 -22h-520v52l265 343l-251 331v69h480q25 0 25 -22v-32q0 -23 -25 -23h-314q35 -49 109 -144t109 -144z" />
    <glyph glyph-name="minus" unicode="&#x2212;" horiz-adv-x="550" 
d="M495 256q0 -47 -57 -47h-327q-57 0 -57 47t57 47h327q57 0 57 -47z" />
    <glyph glyph-name="radical" unicode="&#x221a;" horiz-adv-x="538" 
d="M583 786l-208 -836q-11 -44 -62 -44q-52 0 -64 42l-164 445l-31 -12q-36 -14 -46 12q-13 34 14 44l122 49q21 11 37 8t24 -27l117 -395l159 720q6 28 42 28h30q19 0 26.5 -10t3.5 -24z" />
    <glyph glyph-name="infinity" unicode="&#x221e;" horiz-adv-x="721" 
d="M534 114q-85 0 -174 91q-31 -31 -49.5 -46.5t-54 -30t-77.5 -14.5q-71 0 -116 42t-45 108q0 61 48.5 105t120.5 44q53 0 91.5 -23.5t81.5 -66.5q30 30 49 45.5t55 30t78 14.5q71 0 116 -42t45 -107q0 -62 -48.5 -106t-120.5 -44zM535 192q33 0 54.5 20t21.5 52
q0 34 -20 52.5t-53 18.5q-51 0 -121 -70q4 -3 19 -18t22.5 -21t21 -16t27 -14t28.5 -4zM183 192q53 0 120 71q-73 72 -117 72q-33 0 -54.5 -19.5t-21.5 -51.5q0 -34 20 -53t53 -19z" />
    <glyph glyph-name="integral" unicode="&#x222b;" horiz-adv-x="323" 
d="M322 770l-6 -32q-2 -9 -10 -11t-22 0.5t-17 2.5q-58 0 -58 -177q0 -73 6 -226.5t6 -239.5q0 -236 -156 -236q-13 0 -26.5 1.5t-26.5 8t-11 16.5q3 15 7 33q3 9 12 10.5t23 -1.5t18 -3q14 0 30 20q28 34 28 151q0 74 -6 230t-6 242q0 233 162 233q12 0 23.5 -1.5t21 -7
t8.5 -13.5z" />
    <glyph glyph-name="approxequal" unicode="&#x2248;" horiz-adv-x="550" 
d="M157 95q-47 0 -73.5 21t-26.5 58q0 28 26 28q12 0 24 -5q36 -13 50 -13q36 0 116 33q78 32 120 32q45 0 72.5 -21t27.5 -54q0 -32 -26 -32q-7 0 -25 6q-28 12 -49 12q-37 0 -117 -33q-78 -32 -119 -32zM157 285q-47 0 -73.5 21t-26.5 58q0 28 26 28q12 0 24 -5
q36 -13 50 -13q36 0 116 33q78 32 120 32q45 0 72.5 -21t27.5 -54q0 -32 -26 -32q-7 0 -25 6q-28 12 -49 12q-37 0 -117 -33q-78 -32 -119 -32z" />
    <glyph glyph-name="notequal" unicode="&#x2260;" horiz-adv-x="550" 
d="M495 152q0 -47 -57 -47h-213l-44 -66q-15 -22 -28.5 -24.5t-38.5 12.5q-30 20 -17 39q4 6 13 19t13 20h-12q-57 0 -57 47t57 47h75q39 56 76 114h-151q-57 0 -57 47t57 47h213q12 18 21.5 33t14 22t7.5 12q14 20 27.5 23t38.5 -11q31 -20 13 -48l-21 -31h13q57 0 57 -47
t-57 -47h-75l-76 -114h151q57 0 57 -47z" />
    <glyph glyph-name="lessequal" unicode="&#x2264;" horiz-adv-x="550" 
d="M419 558q18 0 35.5 -18.5t17.5 -35.5q0 -9 -7 -13l-253 -149l253 -148q7 -4 7 -13q0 -17 -17.5 -35.5t-35.5 -18.5q-7 0 -11 3l-312 182q-19 10 -19 25v12q0 14 19 24l312 182q4 3 11 3zM495 47q0 -47 -57 -47h-327q-57 0 -57 47t57 47h327q57 0 57 -47z" />
    <glyph glyph-name="greaterequal" unicode="&#x2265;" horiz-adv-x="550" 
d="M130 558q6 0 11 -3l312 -182q19 -10 19 -24v-12q0 -15 -19 -25l-312 -182q-5 -3 -11 -3q-18 0 -35.5 18.5t-17.5 35.5q0 9 7 13l253 148l-253 149q-7 4 -7 13q0 17 17.5 35.5t35.5 18.5zM54 47q0 47 57 47h327q57 0 57 -47t-57 -47h-327q-57 0 -57 47z" />
    <glyph glyph-name="lozenge" unicode="&#x25ca;" horiz-adv-x="502" 
d="M468 354q8 -16 0 -33l-157 -299q-12 -22 -40 -22h-40q-29 0 -40 22l-157 299q-8 17 0 33l157 300q12 21 40 21h40q28 0 40 -21zM133 337l118 -235l118 235l-118 235q-79 -156 -118 -235z" />
    <glyph glyph-name="a.alt" horiz-adv-x="499" 
d="M318 45q-45 -56 -119 -56q-77 0 -128 36.5t-51 111.5q0 83 57.5 120.5t145.5 37.5q36 0 64 -4q0 72 -13.5 104t-49.5 32q-29 0 -51 -13.5t-38.5 -26.5t-32.5 -13q-20 0 -33 10t-13 29q0 33 46 56.5t139 23.5q109 0 151 -55t42 -154v-145q0 -86 50 -86q40 0 78 55
q9 14 23 11.5t14 -22.5q0 -37 -48 -72.5t-112 -35.5q-85 0 -121 56zM228 58q35 0 59 33v137q-20 3 -38 3q-78 0 -78 -85q0 -37 15 -62.5t42 -25.5z" />
    <glyph glyph-name="g.alt" horiz-adv-x="471" 
d="M89 -96q27 -46 72 -68.5t92 -22.5q39 0 66 17t27 43q0 25 -24.5 39.5t-96.5 25.5l-37 6q-148 25 -148 120q0 56 53 106q-61 51 -61 142q0 82 51 131.5t152 49.5q43 0 82 -11.5t52 -11.5q25 0 45.5 22t36.5 22q18 0 31 -12t13 -29q0 -25 -26.5 -38t-61.5 -15
q30 -58 30 -108q0 -80 -51 -131t-151 -51q-47 0 -83 13q-14 -13 -14 -28q0 -36 101 -50l42 -6q107 -15 153 -54.5t46 -101.5q0 -49 -38.5 -85t-93.5 -51.5t-117 -15.5q-89 0 -156 40.5t-67 88.5q0 23 12 36t30 13q26 0 39 -25zM300 311q0 28 -4.5 52t-20 45.5t-40.5 21.5
q-36 0 -50.5 -35t-14.5 -80q0 -26 4.5 -50.5t20 -46.5t40.5 -22q36 0 50.5 36t14.5 79z" />
    <glyph glyph-name="aacute.alt" horiz-adv-x="499" 
d="M318 45q-45 -56 -119 -56q-77 0 -128 36.5t-51 111.5q0 83 57.5 120.5t145.5 37.5q36 0 64 -4q0 72 -13.5 104t-49.5 32q-29 0 -51 -13.5t-38.5 -26.5t-32.5 -13q-20 0 -33 10t-13 29q0 33 46 56.5t139 23.5q109 0 151 -55t42 -154v-145q0 -86 50 -86q40 0 78 55
q9 14 23 11.5t14 -22.5q0 -37 -48 -72.5t-112 -35.5q-85 0 -121 56zM228 58q35 0 59 33v137q-20 3 -38 3q-78 0 -78 -85q0 -37 15 -62.5t42 -25.5zM178 576q3 4 12.5 17t25.5 33.5t34 44.5q24 31 65 31q42 0 64 -20q13 -12 2 -21q-22 -19 -123 -98q-24 -19 -53 -19
q-19 0 -27 10.5t0 21.5z" />
    <glyph glyph-name="agrave.alt" horiz-adv-x="499" 
d="M318 45q-45 -56 -119 -56q-77 0 -128 36.5t-51 111.5q0 83 57.5 120.5t145.5 37.5q36 0 64 -4q0 72 -13.5 104t-49.5 32q-29 0 -51 -13.5t-38.5 -26.5t-32.5 -13q-20 0 -33 10t-13 29q0 33 46 56.5t139 23.5q109 0 151 -55t42 -154v-145q0 -86 50 -86q40 0 78 55
q9 14 23 11.5t14 -22.5q0 -37 -48 -72.5t-112 -35.5q-85 0 -121 56zM228 58q35 0 59 33v137q-20 3 -38 3q-78 0 -78 -85q0 -37 15 -62.5t42 -25.5zM343 576q14 -18 -1 -32q-23 -21 -73 14l-7 5q-74 58 -122 98q-17 14 14 29q24 12 51 12q39 0 64 -31q60 -75 74 -95z" />
    <glyph glyph-name="acircumflex.alt" horiz-adv-x="499" 
d="M318 45q-45 -56 -119 -56q-77 0 -128 36.5t-51 111.5q0 83 57.5 120.5t145.5 37.5q36 0 64 -4q0 72 -13.5 104t-49.5 32q-29 0 -51 -13.5t-38.5 -26.5t-32.5 -13q-20 0 -33 10t-13 29q0 33 46 56.5t139 23.5q109 0 151 -55t42 -154v-145q0 -86 50 -86q40 0 78 55
q9 14 23 11.5t14 -22.5q0 -37 -48 -72.5t-112 -35.5q-85 0 -121 56zM228 58q35 0 59 33v137q-20 3 -38 3q-78 0 -78 -85q0 -37 15 -62.5t42 -25.5zM251 609l-83 -56q-33 -22 -56 -9q-22 11 1 39l3 3q34 36 61 66t31 34q22 22 42 22t42 -22l92 -100q27 -30 5 -42
q-24 -12 -56 9z" />
    <glyph glyph-name="adieresis.alt" horiz-adv-x="499" 
d="M318 45q-45 -56 -119 -56q-77 0 -128 36.5t-51 111.5q0 83 57.5 120.5t145.5 37.5q36 0 64 -4q0 72 -13.5 104t-49.5 32q-29 0 -51 -13.5t-38.5 -26.5t-32.5 -13q-20 0 -33 10t-13 29q0 33 46 56.5t139 23.5q109 0 151 -55t42 -154v-145q0 -86 50 -86q40 0 78 55
q9 14 23 11.5t14 -22.5q0 -37 -48 -72.5t-112 -35.5q-85 0 -121 56zM228 58q35 0 59 33v137q-20 3 -38 3q-78 0 -78 -85q0 -37 15 -62.5t42 -25.5zM414 627q0 -28 -19.5 -47t-50.5 -19q-32 0 -51.5 19t-19.5 47t19.5 46.5t51.5 18.5q31 0 50.5 -18.5t19.5 -46.5zM225 627
q0 -28 -19.5 -47t-50.5 -19q-32 0 -51.5 19t-19.5 47t19.5 46.5t51.5 18.5q31 0 50.5 -18.5t19.5 -46.5z" />
    <glyph glyph-name="atilde.alt" horiz-adv-x="499" 
d="M318 45q-45 -56 -119 -56q-77 0 -128 36.5t-51 111.5q0 83 57.5 120.5t145.5 37.5q36 0 64 -4q0 72 -13.5 104t-49.5 32q-29 0 -51 -13.5t-38.5 -26.5t-32.5 -13q-20 0 -33 10t-13 29q0 33 46 56.5t139 23.5q109 0 151 -55t42 -154v-145q0 -86 50 -86q40 0 78 55
q9 14 23 11.5t14 -22.5q0 -37 -48 -72.5t-112 -35.5q-85 0 -121 56zM228 58q35 0 59 33v137q-20 3 -38 3q-78 0 -78 -85q0 -37 15 -62.5t42 -25.5zM296 550q-31 0 -61 24q-34 26 -50.5 26.5t-37.5 -25.5q-12 -15 -30 -19t-28.5 6.5t-2.5 32.5q13 37 43.5 64t75.5 27
q31 0 61 -24q34 -26 50.5 -26.5t37.5 25.5q12 15 30 19t28.5 -6.5t2.5 -32.5q-13 -37 -43.5 -64t-75.5 -27z" />
    <glyph glyph-name="aring.alt" horiz-adv-x="499" 
d="M318 45q-45 -56 -119 -56q-77 0 -128 36.5t-51 111.5q0 83 57.5 120.5t145.5 37.5q36 0 64 -4q0 72 -13.5 104t-49.5 32q-29 0 -51 -13.5t-38.5 -26.5t-32.5 -13q-20 0 -33 10t-13 29q0 33 46 56.5t139 23.5q109 0 151 -55t42 -154v-145q0 -86 50 -86q40 0 78 55
q9 14 23 11.5t14 -22.5q0 -37 -48 -72.5t-112 -35.5q-85 0 -121 56zM228 58q35 0 59 33v137q-20 3 -38 3q-78 0 -78 -85q0 -37 15 -62.5t42 -25.5zM249 536q-39 0 -67 27t-28 66q0 41 27.5 67.5t67.5 26.5t67.5 -26.5t27.5 -67.5q0 -39 -28 -66t-67 -27zM249 586q14 0 23 12
t9 31t-9 31t-23 12t-23 -12t-9 -31t9 -31t23 -12z" />
    <glyph glyph-name="LU1" horiz-adv-x="579" 
d="M114 637l448 38l-74 -628q-5 -40 -34.5 -64.5t-69.5 -20.5l-367 38l71 614q2 21 26 23z" />
    <glyph glyph-name="LU2" horiz-adv-x="0" 
d="M-146 465v-234q0 -37 -22.5 -59t-57.5 -22q-38 0 -60.5 22t-22.5 59v260h23q33 0 33 -26v-237q0 -13 8 -20t19 -7q24 0 24 27v263h23q33 0 33 -26zM-436 491h22q34 0 34 -26v-261h28q29 0 29 -20v-31h-113v338z" />
    </font>
</defs>
</svg>
